<?xml version="1.0" encoding="UTF-8" standalone="no"?>
<!DOCTYPE svg PUBLIC "-//W3C//DTD SVG 1.1//EN"
 "http://www.w3.org/Graphics/SVG/1.1/DTD/svg11.dtd">
<!-- Generated by graphviz version 2.40.1 (20161225.0304)
 -->
<!-- Title: %3 Pages: 1 -->
<svg width="775pt" height="90pt"
 viewBox="0.00 0.00 774.75 89.99" xmlns="http://www.w3.org/2000/svg" xmlns:xlink="http://www.w3.org/1999/xlink">
<g id="graph0" class="graph" transform="scale(1 1) rotate(0) translate(4 85.9914)">
<title>%3</title>
<polygon fill="#ffffff" stroke="transparent" points="-4,4 -4,-85.9914 770.7471,-85.9914 770.7471,4 -4,4"/>
<!-- &#45;1 -->
<g id="node1" class="node">
<title>&#45;1</title>
<polygon fill="#d3d3d3" stroke="#000000" points="23.751,-81.9914 -.2539,-81.9914 -.2539,-64.9914 23.751,-64.9914 23.751,-81.9914"/>
<text text-anchor="middle" x="11.7485" y="-70.7914" font-family="Times,serif" font-size="9.00" fill="#000000">&#45;1</text>
</g>
<!-- 0 -->
<g id="node19" class="node">
<title>0</title>
<ellipse fill="#add8e6" stroke="#000000" cx="160.7485" cy="-14.4957" rx="14.4914" ry="14.4914"/>
<text text-anchor="middle" x="160.7485" y="-11.7957" font-family="Times,serif" font-size="9.00" fill="#000000">0</text>
</g>
<!-- &#45;1&#45;&gt;0 -->
<g id="edge1" class="edge">
<title>&#45;1&#45;&gt;0</title>
<path fill="none" stroke="#00ff00" stroke-width=".4611" d="M23.5697,-68.4009C26.2526,-67.2641 29.0938,-66.0748 31.7485,-64.9914 68.542,-49.9752 111.5806,-33.3067 137.4743,-23.3747"/>
<polygon fill="#00ff00" stroke="#00ff00" stroke-width=".4611" points="139.0516,-26.5186 147.1395,-19.675 136.5491,-19.9812 139.0516,-26.5186"/>
</g>
<!-- &#45;2 -->
<g id="node2" class="node">
<title>&#45;2</title>
<polygon fill="#d3d3d3" stroke="#000000" points="377.751,-81.9914 353.7461,-81.9914 353.7461,-64.9914 377.751,-64.9914 377.751,-81.9914"/>
<text text-anchor="middle" x="365.7485" y="-70.7914" font-family="Times,serif" font-size="9.00" fill="#000000">&#45;2</text>
</g>
<!-- &#45;3 -->
<g id="node3" class="node">
<title>&#45;3</title>
<polygon fill="#d3d3d3" stroke="#000000" points="418.751,-81.9914 394.7461,-81.9914 394.7461,-64.9914 418.751,-64.9914 418.751,-81.9914"/>
<text text-anchor="middle" x="406.7485" y="-70.7914" font-family="Times,serif" font-size="9.00" fill="#000000">&#45;3</text>
</g>
<!-- &#45;4 -->
<g id="node4" class="node">
<title>&#45;4</title>
<polygon fill="#d3d3d3" stroke="#000000" points="64.751,-81.9914 40.7461,-81.9914 40.7461,-64.9914 64.751,-64.9914 64.751,-81.9914"/>
<text text-anchor="middle" x="52.7485" y="-70.7914" font-family="Times,serif" font-size="9.00" fill="#000000">&#45;4</text>
</g>
<!-- &#45;4&#45;&gt;0 -->
<g id="edge3" class="edge">
<title>&#45;4&#45;&gt;0</title>
<path fill="none" stroke="#ff0000" stroke-width=".1994" stroke-dasharray="1,5" d="M64.7191,-66.9524C82.5956,-57.1872 116.5544,-38.637 138.9221,-26.4185"/>
<polygon fill="#ff0000" stroke="#ff0000" stroke-width=".1994" points="140.6197,-29.4794 147.7179,-21.6138 137.2639,-23.3362 140.6197,-29.4794"/>
</g>
<!-- &#45;5 -->
<g id="node5" class="node">
<title>&#45;5</title>
<polygon fill="#d3d3d3" stroke="#000000" points="459.751,-81.9914 435.7461,-81.9914 435.7461,-64.9914 459.751,-64.9914 459.751,-81.9914"/>
<text text-anchor="middle" x="447.7485" y="-70.7914" font-family="Times,serif" font-size="9.00" fill="#000000">&#45;5</text>
</g>
<!-- &#45;6 -->
<g id="node6" class="node">
<title>&#45;6</title>
<polygon fill="#d3d3d3" stroke="#000000" points="500.751,-81.9914 476.7461,-81.9914 476.7461,-64.9914 500.751,-64.9914 500.751,-81.9914"/>
<text text-anchor="middle" x="488.7485" y="-70.7914" font-family="Times,serif" font-size="9.00" fill="#000000">&#45;6</text>
</g>
<!-- &#45;7 -->
<g id="node7" class="node">
<title>&#45;7</title>
<polygon fill="#d3d3d3" stroke="#000000" points="105.751,-81.9914 81.7461,-81.9914 81.7461,-64.9914 105.751,-64.9914 105.751,-81.9914"/>
<text text-anchor="middle" x="93.7485" y="-70.7914" font-family="Times,serif" font-size="9.00" fill="#000000">&#45;7</text>
</g>
<!-- &#45;7&#45;&gt;0 -->
<g id="edge2" class="edge">
<title>&#45;7&#45;&gt;0</title>
<path fill="none" stroke="#ff0000" stroke-width=".1606" d="M103.6346,-64.7864C113.6676,-55.952 129.45,-42.0551 141.8842,-31.1064"/>
<polygon fill="#ff0000" stroke="#ff0000" stroke-width=".1606" points="144.2854,-33.6555 149.4776,-24.4201 139.6594,-28.4019 144.2854,-33.6555"/>
</g>
<!-- &#45;8 -->
<g id="node8" class="node">
<title>&#45;8</title>
<polygon fill="#d3d3d3" stroke="#000000" points="541.751,-81.9914 517.7461,-81.9914 517.7461,-64.9914 541.751,-64.9914 541.751,-81.9914"/>
<text text-anchor="middle" x="529.7485" y="-70.7914" font-family="Times,serif" font-size="9.00" fill="#000000">&#45;8</text>
</g>
<!-- &#45;9 -->
<g id="node9" class="node">
<title>&#45;9</title>
<polygon fill="#d3d3d3" stroke="#000000" points="582.751,-81.9914 558.7461,-81.9914 558.7461,-64.9914 582.751,-64.9914 582.751,-81.9914"/>
<text text-anchor="middle" x="570.7485" y="-70.7914" font-family="Times,serif" font-size="9.00" fill="#000000">&#45;9</text>
</g>
<!-- &#45;10 -->
<g id="node10" class="node">
<title>&#45;10</title>
<polygon fill="#d3d3d3" stroke="#000000" points="628.7456,-81.9914 600.7515,-81.9914 600.7515,-64.9914 628.7456,-64.9914 628.7456,-81.9914"/>
<text text-anchor="middle" x="614.7485" y="-70.7914" font-family="Times,serif" font-size="9.00" fill="#000000">&#45;10</text>
</g>
<!-- &#45;11 -->
<g id="node11" class="node">
<title>&#45;11</title>
<polygon fill="#d3d3d3" stroke="#000000" points="151.418,-81.9914 124.0791,-81.9914 124.0791,-64.9914 151.418,-64.9914 151.418,-81.9914"/>
<text text-anchor="middle" x="137.7485" y="-70.7914" font-family="Times,serif" font-size="9.00" fill="#000000">&#45;11</text>
</g>
<!-- &#45;11&#45;&gt;0 -->
<g id="edge7" class="edge">
<title>&#45;11&#45;&gt;0</title>
<path fill="none" stroke="#ff0000" stroke-width=".3595" d="M141.1423,-64.7864C143.9245,-57.6498 147.9948,-47.2094 151.7066,-37.6884"/>
<polygon fill="#ff0000" stroke="#ff0000" stroke-width=".3595" points="155.0046,-38.8647 155.376,-28.2764 148.4827,-36.322 155.0046,-38.8647"/>
</g>
<!-- &#45;12 -->
<g id="node12" class="node">
<title>&#45;12</title>
<polygon fill="#d3d3d3" stroke="#000000" points="197.7456,-81.9914 169.7515,-81.9914 169.7515,-64.9914 197.7456,-64.9914 197.7456,-81.9914"/>
<text text-anchor="middle" x="183.7485" y="-70.7914" font-family="Times,serif" font-size="9.00" fill="#000000">&#45;12</text>
</g>
<!-- &#45;12&#45;&gt;0 -->
<g id="edge4" class="edge">
<title>&#45;12&#45;&gt;0</title>
<path fill="none" stroke="#ff0000" stroke-width=".2733" stroke-dasharray="1,5" d="M180.3548,-64.7864C177.5725,-57.6498 173.5023,-47.2094 169.7904,-37.6884"/>
<polygon fill="#ff0000" stroke="#ff0000" stroke-width=".2733" points="173.0144,-36.322 166.1211,-28.2764 166.4925,-38.8647 173.0144,-36.322"/>
</g>
<!-- &#45;13 -->
<g id="node13" class="node">
<title>&#45;13</title>
<polygon fill="#d3d3d3" stroke="#000000" points="674.7456,-81.9914 646.7515,-81.9914 646.7515,-64.9914 674.7456,-64.9914 674.7456,-81.9914"/>
<text text-anchor="middle" x="660.7485" y="-70.7914" font-family="Times,serif" font-size="9.00" fill="#000000">&#45;13</text>
</g>
<!-- &#45;14 -->
<g id="node14" class="node">
<title>&#45;14</title>
<polygon fill="#d3d3d3" stroke="#000000" points="720.7456,-81.9914 692.7515,-81.9914 692.7515,-64.9914 720.7456,-64.9914 720.7456,-81.9914"/>
<text text-anchor="middle" x="706.7485" y="-70.7914" font-family="Times,serif" font-size="9.00" fill="#000000">&#45;14</text>
</g>
<!-- &#45;15 -->
<g id="node15" class="node">
<title>&#45;15</title>
<polygon fill="#d3d3d3" stroke="#000000" points="243.7456,-81.9914 215.7515,-81.9914 215.7515,-64.9914 243.7456,-64.9914 243.7456,-81.9914"/>
<text text-anchor="middle" x="229.7485" y="-70.7914" font-family="Times,serif" font-size="9.00" fill="#000000">&#45;15</text>
</g>
<!-- &#45;15&#45;&gt;0 -->
<g id="edge8" class="edge">
<title>&#45;15&#45;&gt;0</title>
<path fill="none" stroke="#00ff00" stroke-width=".1721" d="M219.5673,-64.7864C209.1119,-55.8468 192.5935,-41.7235 179.7202,-30.7166"/>
<polygon fill="#00ff00" stroke="#00ff00" stroke-width=".1721" points="181.7624,-27.8578 171.8873,-24.0194 177.2134,-33.1782 181.7624,-27.8578"/>
</g>
<!-- &#45;16 -->
<g id="node16" class="node">
<title>&#45;16</title>
<polygon fill="#d3d3d3" stroke="#000000" points="289.7456,-81.9914 261.7515,-81.9914 261.7515,-64.9914 289.7456,-64.9914 289.7456,-81.9914"/>
<text text-anchor="middle" x="275.7485" y="-70.7914" font-family="Times,serif" font-size="9.00" fill="#000000">&#45;16</text>
</g>
<!-- &#45;16&#45;&gt;0 -->
<g id="edge6" class="edge">
<title>&#45;16&#45;&gt;0</title>
<path fill="none" stroke="#00ff00" stroke-width=".2163" d="M261.6473,-66.2573C242.0197,-56.1883 206.2628,-37.8448 183.0133,-25.9176"/>
<polygon fill="#00ff00" stroke="#00ff00" stroke-width=".2163" points="184.3936,-22.6921 173.8985,-21.2417 181.1984,-28.9203 184.3936,-22.6921"/>
</g>
<!-- &#45;17 -->
<g id="node17" class="node">
<title>&#45;17</title>
<polygon fill="#d3d3d3" stroke="#000000" points="766.7456,-81.9914 738.7515,-81.9914 738.7515,-64.9914 766.7456,-64.9914 766.7456,-81.9914"/>
<text text-anchor="middle" x="752.7485" y="-70.7914" font-family="Times,serif" font-size="9.00" fill="#000000">&#45;17</text>
</g>
<!-- &#45;18 -->
<g id="node18" class="node">
<title>&#45;18</title>
<polygon fill="#d3d3d3" stroke="#000000" points="335.7456,-81.9914 307.7515,-81.9914 307.7515,-64.9914 335.7456,-64.9914 335.7456,-81.9914"/>
<text text-anchor="middle" x="321.7485" y="-70.7914" font-family="Times,serif" font-size="9.00" fill="#000000">&#45;18</text>
</g>
<!-- &#45;18&#45;&gt;0 -->
<g id="edge5" class="edge">
<title>&#45;18&#45;&gt;0</title>
<path fill="none" stroke="#00ff00" stroke-width=".4233" d="M307.6415,-68.2698C304.7031,-67.1844 301.6252,-66.0492 298.7485,-64.9914 258.4082,-50.1567 211.3954,-32.9776 183.9645,-22.9648"/>
<polygon fill="#00ff00" stroke="#00ff00" stroke-width=".4233" points="185.0588,-19.6384 174.4648,-19.4981 182.659,-26.2142 185.0588,-19.6384"/>
</g>
</g>
</svg>
