<?xml version="1.0" encoding="UTF-8" standalone="no"?>
<!DOCTYPE svg PUBLIC "-//W3C//DTD SVG 1.1//EN"
 "http://www.w3.org/Graphics/SVG/1.1/DTD/svg11.dtd">
<!-- Generated by graphviz version 2.40.1 (20161225.0304)
 -->
<!-- Title: %3 Pages: 1 -->
<svg width="777pt" height="103pt"
 viewBox="0.00 0.00 777.00 102.72" xmlns="http://www.w3.org/2000/svg" xmlns:xlink="http://www.w3.org/1999/xlink">
<g id="graph0" class="graph" transform="scale(1 1) rotate(0) translate(4 98.7193)">
<title>%3</title>
<polygon fill="#ffffff" stroke="transparent" points="-4,4 -4,-98.7193 772.9971,-98.7193 772.9971,4 -4,4"/>
<!-- &#45;1 -->
<g id="node1" class="node">
<title>&#45;1</title>
<polygon fill="#d3d3d3" stroke="#000000" points="70.001,-94.7193 45.9961,-94.7193 45.9961,-77.7193 70.001,-77.7193 70.001,-94.7193"/>
<text text-anchor="middle" x="57.9985" y="-83.5193" font-family="Times,serif" font-size="9.00" fill="#000000">&#45;1</text>
</g>
<!-- 106 -->
<g id="node20" class="node">
<title>106</title>
<ellipse fill="#ffffff" stroke="#000000" cx="215.9985" cy="-20.8597" rx="20.7202" ry="20.7202"/>
<text text-anchor="middle" x="215.9985" y="-18.1597" font-family="Times,serif" font-size="9.00" fill="#000000">106</text>
</g>
<!-- &#45;1&#45;&gt;106 -->
<g id="edge15" class="edge">
<title>&#45;1&#45;&gt;106</title>
<path fill="none" stroke="#00ff00" stroke-width=".2364" d="M69.8742,-81.3067C94.4996,-71.12 151.7476,-47.4382 186.8325,-32.9247"/>
<polygon fill="#00ff00" stroke="#00ff00" stroke-width=".2364" points="188.6193,-35.9733 196.5219,-28.9165 185.9434,-29.5049 188.6193,-35.9733"/>
</g>
<!-- &#45;2 -->
<g id="node2" class="node">
<title>&#45;2</title>
<polygon fill="#d3d3d3" stroke="#000000" points="600.001,-94.7193 575.9961,-94.7193 575.9961,-77.7193 600.001,-77.7193 600.001,-94.7193"/>
<text text-anchor="middle" x="587.9985" y="-83.5193" font-family="Times,serif" font-size="9.00" fill="#000000">&#45;2</text>
</g>
<!-- &#45;3 -->
<g id="node3" class="node">
<title>&#45;3</title>
<polygon fill="#d3d3d3" stroke="#000000" points="250.001,-94.7193 225.9961,-94.7193 225.9961,-77.7193 250.001,-77.7193 250.001,-94.7193"/>
<text text-anchor="middle" x="237.9985" y="-83.5193" font-family="Times,serif" font-size="9.00" fill="#000000">&#45;3</text>
</g>
<!-- 0 -->
<g id="node19" class="node">
<title>0</title>
<ellipse fill="#add8e6" stroke="#000000" cx="386.9985" cy="-20.8597" rx="14.4914" ry="14.4914"/>
<text text-anchor="middle" x="386.9985" y="-18.1597" font-family="Times,serif" font-size="9.00" fill="#000000">0</text>
</g>
<!-- &#45;3&#45;&gt;0 -->
<g id="edge14" class="edge">
<title>&#45;3&#45;&gt;0</title>
<path fill="none" stroke="#00ff00" stroke-width=".1135" d="M249.94,-80.9811C274.6159,-70.1569 331.6065,-45.1577 363.7875,-31.0413"/>
<polygon fill="#00ff00" stroke="#00ff00" stroke-width=".1135" points="365.54,-34.0946 373.2917,-26.8722 362.728,-27.6842 365.54,-34.0946"/>
</g>
<!-- &#45;3&#45;&gt;106 -->
<g id="edge16" class="edge">
<title>&#45;3&#45;&gt;106</title>
<path fill="none" stroke="#ff0000" stroke-width=".2944" d="M235.1224,-77.6747C232.7639,-70.6676 229.2795,-60.3159 225.9288,-50.3613"/>
<polygon fill="#ff0000" stroke="#ff0000" stroke-width=".2944" points="229.1766,-49.0385 222.6692,-40.6776 222.5423,-51.2717 229.1766,-49.0385"/>
</g>
<!-- &#45;4 -->
<g id="node4" class="node">
<title>&#45;4</title>
<polygon fill="#d3d3d3" stroke="#000000" points="466.001,-94.7193 441.9961,-94.7193 441.9961,-77.7193 466.001,-77.7193 466.001,-94.7193"/>
<text text-anchor="middle" x="453.9985" y="-83.5193" font-family="Times,serif" font-size="9.00" fill="#000000">&#45;4</text>
</g>
<!-- &#45;4&#45;&gt;0 -->
<g id="edge10" class="edge">
<title>&#45;4&#45;&gt;0</title>
<path fill="none" stroke="#00ff00" stroke-width=".161" d="M445.2395,-77.6747C435.1347,-67.8173 418.2444,-51.3405 405.2476,-38.6619"/>
<polygon fill="#00ff00" stroke="#00ff00" stroke-width=".161" points="407.3562,-35.8293 397.7539,-31.3517 402.4681,-40.84 407.3562,-35.8293"/>
</g>
<!-- &#45;5 -->
<g id="node5" class="node">
<title>&#45;5</title>
<polygon fill="#d3d3d3" stroke="#000000" points="291.001,-94.7193 266.9961,-94.7193 266.9961,-77.7193 291.001,-77.7193 291.001,-94.7193"/>
<text text-anchor="middle" x="278.9985" y="-83.5193" font-family="Times,serif" font-size="9.00" fill="#000000">&#45;5</text>
</g>
<!-- &#45;5&#45;&gt;0 -->
<g id="edge6" class="edge">
<title>&#45;5&#45;&gt;0</title>
<path fill="none" stroke="#00ff00" stroke-width=".2571" d="M290.9691,-78.9749C308.9417,-68.0982 343.1701,-47.3839 365.5318,-33.8509"/>
<polygon fill="#00ff00" stroke="#00ff00" stroke-width=".2571" points="367.5638,-36.7123 374.3069,-28.5404 363.9395,-30.7236 367.5638,-36.7123"/>
</g>
<!-- &#45;5&#45;&gt;106 -->
<g id="edge7" class="edge">
<title>&#45;5&#45;&gt;106</title>
<path fill="none" stroke="#ff0000" stroke-width=".2247" d="M270.7624,-77.6747C262.3902,-68.9889 249.0642,-55.1637 237.654,-43.3262"/>
<polygon fill="#ff0000" stroke="#ff0000" stroke-width=".2247" points="239.9638,-40.6792 230.5039,-35.9083 234.9239,-45.5372 239.9638,-40.6792"/>
</g>
<!-- &#45;6 -->
<g id="node6" class="node">
<title>&#45;6</title>
<polygon fill="#d3d3d3" stroke="#000000" points="332.001,-94.7193 307.9961,-94.7193 307.9961,-77.7193 332.001,-77.7193 332.001,-94.7193"/>
<text text-anchor="middle" x="319.9985" y="-83.5193" font-family="Times,serif" font-size="9.00" fill="#000000">&#45;6</text>
</g>
<!-- &#45;6&#45;&gt;0 -->
<g id="edge2" class="edge">
<title>&#45;6&#45;&gt;0</title>
<path fill="none" stroke="#00ff00" stroke-width=".2742" d="M328.7576,-77.6747C338.8624,-67.8173 355.7527,-51.3405 368.7494,-38.6619"/>
<polygon fill="#00ff00" stroke="#00ff00" stroke-width=".2742" points="371.529,-40.84 376.2431,-31.3517 366.6409,-35.8293 371.529,-40.84"/>
</g>
<!-- &#45;6&#45;&gt;106 -->
<g id="edge9" class="edge">
<title>&#45;6&#45;&gt;106</title>
<path fill="none" stroke="#ff0000" stroke-width=".2497" d="M308.0684,-78.7217C292.1021,-68.6876 263.3477,-50.6166 242.208,-37.3312"/>
<polygon fill="#ff0000" stroke="#ff0000" stroke-width=".2497" points="244.003,-34.3255 233.6738,-31.9678 240.2783,-40.2523 244.003,-34.3255"/>
</g>
<!-- &#45;7 -->
<g id="node7" class="node">
<title>&#45;7</title>
<polygon fill="#d3d3d3" stroke="#000000" points="641.001,-94.7193 616.9961,-94.7193 616.9961,-77.7193 641.001,-77.7193 641.001,-94.7193"/>
<text text-anchor="middle" x="628.9985" y="-83.5193" font-family="Times,serif" font-size="9.00" fill="#000000">&#45;7</text>
</g>
<!-- &#45;8 -->
<g id="node8" class="node">
<title>&#45;8</title>
<polygon fill="#d3d3d3" stroke="#000000" points="682.001,-94.7193 657.9961,-94.7193 657.9961,-77.7193 682.001,-77.7193 682.001,-94.7193"/>
<text text-anchor="middle" x="669.9985" y="-83.5193" font-family="Times,serif" font-size="9.00" fill="#000000">&#45;8</text>
</g>
<!-- &#45;9 -->
<g id="node9" class="node">
<title>&#45;9</title>
<polygon fill="#d3d3d3" stroke="#000000" points="723.001,-94.7193 698.9961,-94.7193 698.9961,-77.7193 723.001,-77.7193 723.001,-94.7193"/>
<text text-anchor="middle" x="710.9985" y="-83.5193" font-family="Times,serif" font-size="9.00" fill="#000000">&#45;9</text>
</g>
<!-- &#45;10 -->
<g id="node10" class="node">
<title>&#45;10</title>
<polygon fill="#d3d3d3" stroke="#000000" points="768.9956,-94.7193 741.0015,-94.7193 741.0015,-77.7193 768.9956,-77.7193 768.9956,-94.7193"/>
<text text-anchor="middle" x="754.9985" y="-83.5193" font-family="Times,serif" font-size="9.00" fill="#000000">&#45;10</text>
</g>
<!-- &#45;11 -->
<g id="node11" class="node">
<title>&#45;11</title>
<polygon fill="#d3d3d3" stroke="#000000" points="115.668,-94.7193 88.3291,-94.7193 88.3291,-77.7193 115.668,-77.7193 115.668,-94.7193"/>
<text text-anchor="middle" x="101.9985" y="-83.5193" font-family="Times,serif" font-size="9.00" fill="#000000">&#45;11</text>
</g>
<!-- &#45;11&#45;&gt;106 -->
<g id="edge17" class="edge">
<title>&#45;11&#45;&gt;106</title>
<path fill="none" stroke="#ff0000" stroke-width=".3111" d="M115.9772,-78.2049C134.0577,-67.8388 165.9454,-49.5566 188.8605,-36.4187"/>
<polygon fill="#ff0000" stroke="#ff0000" stroke-width=".3111" points="190.827,-39.3257 197.7615,-31.3155 187.3453,-33.253 190.827,-39.3257"/>
</g>
<!-- &#45;12 -->
<g id="node12" class="node">
<title>&#45;12</title>
<polygon fill="#d3d3d3" stroke="#000000" points="511.9956,-94.7193 484.0015,-94.7193 484.0015,-77.7193 511.9956,-77.7193 511.9956,-94.7193"/>
<text text-anchor="middle" x="497.9985" y="-83.5193" font-family="Times,serif" font-size="9.00" fill="#000000">&#45;12</text>
</g>
<!-- &#45;12&#45;&gt;0 -->
<g id="edge1" class="edge">
<title>&#45;12&#45;&gt;0</title>
<path fill="none" stroke="#ff0000" stroke-width=".1062" d="M483.9403,-77.9415C464.8495,-66.7003 430.5597,-46.5096 408.2991,-33.402"/>
<polygon fill="#ff0000" stroke="#ff0000" stroke-width=".1062" points="409.9678,-30.3229 399.5747,-28.2648 406.416,-36.3549 409.9678,-30.3229"/>
</g>
<!-- &#45;13 -->
<g id="node13" class="node">
<title>&#45;13</title>
<polygon fill="#d3d3d3" stroke="#000000" points="377.9956,-94.7193 350.0015,-94.7193 350.0015,-77.7193 377.9956,-77.7193 377.9956,-94.7193"/>
<text text-anchor="middle" x="363.9985" y="-83.5193" font-family="Times,serif" font-size="9.00" fill="#000000">&#45;13</text>
</g>
<!-- &#45;13&#45;&gt;0 -->
<g id="edge11" class="edge">
<title>&#45;13&#45;&gt;0</title>
<path fill="none" stroke="#00ff00" stroke-width=".1548" d="M367.0054,-77.6747C369.9814,-69.2176 374.672,-55.8882 378.7621,-44.2653"/>
<polygon fill="#00ff00" stroke="#00ff00" stroke-width=".1548" points="382.1257,-45.2507 382.1437,-34.6558 375.5226,-42.927 382.1257,-45.2507"/>
</g>
<!-- &#45;13&#45;&gt;106 -->
<g id="edge8" class="edge">
<title>&#45;13&#45;&gt;106</title>
<path fill="none" stroke="#00ff00" stroke-width=".1669" d="M349.8077,-79.9523C325.6789,-69.2966 276.2111,-47.4507 244.6516,-33.5134"/>
<polygon fill="#00ff00" stroke="#00ff00" stroke-width=".1669" points="246.0417,-30.3012 235.4801,-29.4631 243.2138,-36.7046 246.0417,-30.3012"/>
</g>
<!-- &#45;14 -->
<g id="node14" class="node">
<title>&#45;14</title>
<polygon fill="#d3d3d3" stroke="#000000" points="161.9956,-94.7193 134.0015,-94.7193 134.0015,-77.7193 161.9956,-77.7193 161.9956,-94.7193"/>
<text text-anchor="middle" x="147.9985" y="-83.5193" font-family="Times,serif" font-size="9.00" fill="#000000">&#45;14</text>
</g>
<!-- &#45;14&#45;&gt;106 -->
<g id="edge5" class="edge">
<title>&#45;14&#45;&gt;106</title>
<path fill="none" stroke="#ff0000" stroke-width=".1986" d="M156.8883,-77.6747C166.1303,-68.7915 180.965,-54.5329 193.4605,-42.5225"/>
<polygon fill="#ff0000" stroke="#ff0000" stroke-width=".1986" points="196.0833,-44.8563 200.8675,-35.4031 191.2325,-39.8095 196.0833,-44.8563"/>
</g>
<!-- &#45;15 -->
<g id="node15" class="node">
<title>&#45;15</title>
<polygon fill="#d3d3d3" stroke="#000000" points="423.9956,-94.7193 396.0015,-94.7193 396.0015,-77.7193 423.9956,-77.7193 423.9956,-94.7193"/>
<text text-anchor="middle" x="409.9985" y="-83.5193" font-family="Times,serif" font-size="9.00" fill="#000000">&#45;15</text>
</g>
<!-- &#45;15&#45;&gt;0 -->
<g id="edge13" class="edge">
<title>&#45;15&#45;&gt;0</title>
<path fill="none" stroke="#ff0000" stroke-width=".1772" d="M406.9917,-77.6747C404.0156,-69.2176 399.3251,-55.8882 395.235,-44.2653"/>
<polygon fill="#ff0000" stroke="#ff0000" stroke-width=".1772" points="398.4745,-42.927 391.8534,-34.6558 391.8714,-45.2507 398.4745,-42.927"/>
</g>
<!-- &#45;15&#45;&gt;106 -->
<g id="edge12" class="edge">
<title>&#45;15&#45;&gt;106</title>
<path fill="none" stroke="#ff0000" stroke-width=".32" d="M395.9154,-80.9311C392.9753,-79.8506 389.8907,-78.7342 386.9985,-77.7193 337.7728,-60.4444 280.1234,-41.5498 245.9096,-30.4748"/>
<polygon fill="#ff0000" stroke="#ff0000" stroke-width=".32" points="246.6709,-27.0427 236.0791,-27.2993 244.5191,-33.7038 246.6709,-27.0427"/>
</g>
<!-- &#45;16 -->
<g id="node16" class="node">
<title>&#45;16</title>
<polygon fill="#d3d3d3" stroke="#000000" points="207.9956,-94.7193 180.0015,-94.7193 180.0015,-77.7193 207.9956,-77.7193 207.9956,-94.7193"/>
<text text-anchor="middle" x="193.9985" y="-83.5193" font-family="Times,serif" font-size="9.00" fill="#000000">&#45;16</text>
</g>
<!-- &#45;16&#45;&gt;106 -->
<g id="edge4" class="edge">
<title>&#45;16&#45;&gt;106</title>
<path fill="none" stroke="#00ff00" stroke-width=".3282" d="M196.8747,-77.6747C199.2332,-70.6676 202.7176,-60.3159 206.0683,-50.3613"/>
<polygon fill="#00ff00" stroke="#00ff00" stroke-width=".3282" points="209.4548,-51.2717 209.3278,-40.6776 202.8205,-49.0385 209.4548,-51.2717"/>
</g>
<!-- &#45;17 -->
<g id="node17" class="node">
<title>&#45;17</title>
<polygon fill="#d3d3d3" stroke="#000000" points="557.9956,-94.7193 530.0015,-94.7193 530.0015,-77.7193 557.9956,-77.7193 557.9956,-94.7193"/>
<text text-anchor="middle" x="543.9985" y="-83.5193" font-family="Times,serif" font-size="9.00" fill="#000000">&#45;17</text>
</g>
<!-- &#45;17&#45;&gt;0 -->
<g id="edge18" class="edge">
<title>&#45;17&#45;&gt;0</title>
<path fill="none" stroke="#ff0000" stroke-width=".3216" d="M529.7889,-80.3038C502.5634,-68.9697 442.8336,-44.104 409.9073,-30.3967"/>
<polygon fill="#ff0000" stroke="#ff0000" stroke-width=".3216" points="411.1921,-27.1404 400.615,-26.5282 408.5018,-33.6028 411.1921,-27.1404"/>
</g>
<!-- &#45;18 -->
<g id="node18" class="node">
<title>&#45;18</title>
<polygon fill="#d3d3d3" stroke="#000000" points="27.9956,-94.7193 .0015,-94.7193 .0015,-77.7193 27.9956,-77.7193 27.9956,-94.7193"/>
<text text-anchor="middle" x="13.9985" y="-83.5193" font-family="Times,serif" font-size="9.00" fill="#000000">&#45;18</text>
</g>
<!-- &#45;18&#45;&gt;106 -->
<g id="edge3" class="edge">
<title>&#45;18&#45;&gt;106</title>
<path fill="none" stroke="#ff0000" stroke-width=".209" d="M28.0712,-80.901C31.012,-79.8227 34.0996,-78.7148 36.9985,-77.7193 89.0651,-59.8396 150.3112,-40.8124 185.9825,-29.928"/>
<polygon fill="#ff0000" stroke="#ff0000" stroke-width=".209" points="187.2168,-33.2109 195.7651,-26.9517 185.1793,-26.514 187.2168,-33.2109"/>
</g>
</g>
</svg>
