<?xml version="1.0" encoding="UTF-8" standalone="no"?>
<!DOCTYPE svg PUBLIC "-//W3C//DTD SVG 1.1//EN"
 "http://www.w3.org/Graphics/SVG/1.1/DTD/svg11.dtd">
<!-- Generated by graphviz version 2.40.1 (20161225.0304)
 -->
<!-- Title: %3 Pages: 1 -->
<svg width="774pt" height="90pt"
 viewBox="0.00 0.00 773.75 89.99" xmlns="http://www.w3.org/2000/svg" xmlns:xlink="http://www.w3.org/1999/xlink">
<g id="graph0" class="graph" transform="scale(1 1) rotate(0) translate(4 85.9914)">
<title>%3</title>
<polygon fill="#ffffff" stroke="transparent" points="-4,4 -4,-85.9914 769.7471,-85.9914 769.7471,4 -4,4"/>
<!-- &#45;1 -->
<g id="node1" class="node">
<title>&#45;1</title>
<polygon fill="#d3d3d3" stroke="#000000" points="23.751,-81.9914 -.2539,-81.9914 -.2539,-64.9914 23.751,-64.9914 23.751,-81.9914"/>
<text text-anchor="middle" x="11.7485" y="-70.7914" font-family="Times,serif" font-size="9.00" fill="#000000">&#45;1</text>
</g>
<!-- &#45;2 -->
<g id="node2" class="node">
<title>&#45;2</title>
<polygon fill="#d3d3d3" stroke="#000000" points="64.751,-81.9914 40.7461,-81.9914 40.7461,-64.9914 64.751,-64.9914 64.751,-81.9914"/>
<text text-anchor="middle" x="52.7485" y="-70.7914" font-family="Times,serif" font-size="9.00" fill="#000000">&#45;2</text>
</g>
<!-- &#45;3 -->
<g id="node3" class="node">
<title>&#45;3</title>
<polygon fill="#d3d3d3" stroke="#000000" points="105.751,-81.9914 81.7461,-81.9914 81.7461,-64.9914 105.751,-64.9914 105.751,-81.9914"/>
<text text-anchor="middle" x="93.7485" y="-70.7914" font-family="Times,serif" font-size="9.00" fill="#000000">&#45;3</text>
</g>
<!-- &#45;4 -->
<g id="node4" class="node">
<title>&#45;4</title>
<polygon fill="#d3d3d3" stroke="#000000" points="146.751,-81.9914 122.7461,-81.9914 122.7461,-64.9914 146.751,-64.9914 146.751,-81.9914"/>
<text text-anchor="middle" x="134.7485" y="-70.7914" font-family="Times,serif" font-size="9.00" fill="#000000">&#45;4</text>
</g>
<!-- &#45;5 -->
<g id="node5" class="node">
<title>&#45;5</title>
<polygon fill="#d3d3d3" stroke="#000000" points="187.751,-81.9914 163.7461,-81.9914 163.7461,-64.9914 187.751,-64.9914 187.751,-81.9914"/>
<text text-anchor="middle" x="175.7485" y="-70.7914" font-family="Times,serif" font-size="9.00" fill="#000000">&#45;5</text>
</g>
<!-- &#45;6 -->
<g id="node6" class="node">
<title>&#45;6</title>
<polygon fill="#d3d3d3" stroke="#000000" points="228.751,-81.9914 204.7461,-81.9914 204.7461,-64.9914 228.751,-64.9914 228.751,-81.9914"/>
<text text-anchor="middle" x="216.7485" y="-70.7914" font-family="Times,serif" font-size="9.00" fill="#000000">&#45;6</text>
</g>
<!-- &#45;7 -->
<g id="node7" class="node">
<title>&#45;7</title>
<polygon fill="#d3d3d3" stroke="#000000" points="269.751,-81.9914 245.7461,-81.9914 245.7461,-64.9914 269.751,-64.9914 269.751,-81.9914"/>
<text text-anchor="middle" x="257.7485" y="-70.7914" font-family="Times,serif" font-size="9.00" fill="#000000">&#45;7</text>
</g>
<!-- &#45;8 -->
<g id="node8" class="node">
<title>&#45;8</title>
<polygon fill="#d3d3d3" stroke="#000000" points="310.751,-81.9914 286.7461,-81.9914 286.7461,-64.9914 310.751,-64.9914 310.751,-81.9914"/>
<text text-anchor="middle" x="298.7485" y="-70.7914" font-family="Times,serif" font-size="9.00" fill="#000000">&#45;8</text>
</g>
<!-- &#45;9 -->
<g id="node9" class="node">
<title>&#45;9</title>
<polygon fill="#d3d3d3" stroke="#000000" points="351.751,-81.9914 327.7461,-81.9914 327.7461,-64.9914 351.751,-64.9914 351.751,-81.9914"/>
<text text-anchor="middle" x="339.7485" y="-70.7914" font-family="Times,serif" font-size="9.00" fill="#000000">&#45;9</text>
</g>
<!-- &#45;10 -->
<g id="node10" class="node">
<title>&#45;10</title>
<polygon fill="#d3d3d3" stroke="#000000" points="397.7456,-81.9914 369.7515,-81.9914 369.7515,-64.9914 397.7456,-64.9914 397.7456,-81.9914"/>
<text text-anchor="middle" x="383.7485" y="-70.7914" font-family="Times,serif" font-size="9.00" fill="#000000">&#45;10</text>
</g>
<!-- 0 -->
<g id="node19" class="node">
<title>0</title>
<ellipse fill="#add8e6" stroke="#000000" cx="429.7485" cy="-14.4957" rx="14.4914" ry="14.4914"/>
<text text-anchor="middle" x="429.7485" y="-11.7957" font-family="Times,serif" font-size="9.00" fill="#000000">0</text>
</g>
<!-- &#45;10&#45;&gt;0 -->
<g id="edge1" class="edge">
<title>&#45;10&#45;&gt;0</title>
<path fill="none" stroke="#00ff00" stroke-width=".2995" stroke-dasharray="1,5" d="M390.536,-64.7864C396.7839,-56.7734 406.2793,-44.5953 414.3612,-34.2301"/>
<polygon fill="#00ff00" stroke="#00ff00" stroke-width=".2995" points="417.3265,-36.1192 420.7153,-26.0809 411.8062,-31.8149 417.3265,-36.1192"/>
</g>
<!-- &#45;11 -->
<g id="node11" class="node">
<title>&#45;11</title>
<polygon fill="#d3d3d3" stroke="#000000" points="535.418,-81.9914 508.0791,-81.9914 508.0791,-64.9914 535.418,-64.9914 535.418,-81.9914"/>
<text text-anchor="middle" x="521.7485" y="-70.7914" font-family="Times,serif" font-size="9.00" fill="#000000">&#45;11</text>
</g>
<!-- &#45;12 -->
<g id="node12" class="node">
<title>&#45;12</title>
<polygon fill="#d3d3d3" stroke="#000000" points="581.7456,-81.9914 553.7515,-81.9914 553.7515,-64.9914 581.7456,-64.9914 581.7456,-81.9914"/>
<text text-anchor="middle" x="567.7485" y="-70.7914" font-family="Times,serif" font-size="9.00" fill="#000000">&#45;12</text>
</g>
<!-- &#45;13 -->
<g id="node13" class="node">
<title>&#45;13</title>
<polygon fill="#d3d3d3" stroke="#000000" points="627.7456,-81.9914 599.7515,-81.9914 599.7515,-64.9914 627.7456,-64.9914 627.7456,-81.9914"/>
<text text-anchor="middle" x="613.7485" y="-70.7914" font-family="Times,serif" font-size="9.00" fill="#000000">&#45;13</text>
</g>
<!-- &#45;14 -->
<g id="node14" class="node">
<title>&#45;14</title>
<polygon fill="#d3d3d3" stroke="#000000" points="443.7456,-81.9914 415.7515,-81.9914 415.7515,-64.9914 443.7456,-64.9914 443.7456,-81.9914"/>
<text text-anchor="middle" x="429.7485" y="-70.7914" font-family="Times,serif" font-size="9.00" fill="#000000">&#45;14</text>
</g>
<!-- &#45;14&#45;&gt;0 -->
<g id="edge3" class="edge">
<title>&#45;14&#45;&gt;0</title>
<path fill="none" stroke="#00ff00" stroke-width=".5775" stroke-dasharray="1,5" d="M429.7485,-64.7864C429.7485,-58.0594 429.7485,-48.3972 429.7485,-39.3363"/>
<polygon fill="#00ff00" stroke="#00ff00" stroke-width=".5775" points="433.2486,-39.1879 429.7485,-29.1879 426.2486,-39.1879 433.2486,-39.1879"/>
</g>
<!-- &#45;15 -->
<g id="node15" class="node">
<title>&#45;15</title>
<polygon fill="#d3d3d3" stroke="#000000" points="673.7456,-81.9914 645.7515,-81.9914 645.7515,-64.9914 673.7456,-64.9914 673.7456,-81.9914"/>
<text text-anchor="middle" x="659.7485" y="-70.7914" font-family="Times,serif" font-size="9.00" fill="#000000">&#45;15</text>
</g>
<!-- &#45;16 -->
<g id="node16" class="node">
<title>&#45;16</title>
<polygon fill="#d3d3d3" stroke="#000000" points="489.7456,-81.9914 461.7515,-81.9914 461.7515,-64.9914 489.7456,-64.9914 489.7456,-81.9914"/>
<text text-anchor="middle" x="475.7485" y="-70.7914" font-family="Times,serif" font-size="9.00" fill="#000000">&#45;16</text>
</g>
<!-- &#45;16&#45;&gt;0 -->
<g id="edge2" class="edge">
<title>&#45;16&#45;&gt;0</title>
<path fill="none" stroke="#00ff00" stroke-width=".2145" d="M468.9611,-64.7864C462.7132,-56.7734 453.2178,-44.5953 445.1358,-34.2301"/>
<polygon fill="#00ff00" stroke="#00ff00" stroke-width=".2145" points="447.6909,-31.8149 438.7818,-26.0809 442.1706,-36.1192 447.6909,-31.8149"/>
</g>
<!-- &#45;17 -->
<g id="node17" class="node">
<title>&#45;17</title>
<polygon fill="#d3d3d3" stroke="#000000" points="719.7456,-81.9914 691.7515,-81.9914 691.7515,-64.9914 719.7456,-64.9914 719.7456,-81.9914"/>
<text text-anchor="middle" x="705.7485" y="-70.7914" font-family="Times,serif" font-size="9.00" fill="#000000">&#45;17</text>
</g>
<!-- &#45;18 -->
<g id="node18" class="node">
<title>&#45;18</title>
<polygon fill="#d3d3d3" stroke="#000000" points="765.7456,-81.9914 737.7515,-81.9914 737.7515,-64.9914 765.7456,-64.9914 765.7456,-81.9914"/>
<text text-anchor="middle" x="751.7485" y="-70.7914" font-family="Times,serif" font-size="9.00" fill="#000000">&#45;18</text>
</g>
</g>
</svg>
