<?xml version="1.0" encoding="UTF-8" standalone="no"?>
<!DOCTYPE svg PUBLIC "-//W3C//DTD SVG 1.1//EN"
 "http://www.w3.org/Graphics/SVG/1.1/DTD/svg11.dtd">
<!-- Generated by graphviz version 2.40.1 (20161225.0304)
 -->
<!-- Title: %3 Pages: 1 -->
<svg width="775pt" height="90pt"
 viewBox="0.00 0.00 774.75 89.99" xmlns="http://www.w3.org/2000/svg" xmlns:xlink="http://www.w3.org/1999/xlink">
<g id="graph0" class="graph" transform="scale(1 1) rotate(0) translate(4 85.9914)">
<title>%3</title>
<polygon fill="#ffffff" stroke="transparent" points="-4,4 -4,-85.9914 770.7471,-85.9914 770.7471,4 -4,4"/>
<!-- &#45;1 -->
<g id="node1" class="node">
<title>&#45;1</title>
<polygon fill="#d3d3d3" stroke="#000000" points="23.751,-81.9914 -.2539,-81.9914 -.2539,-64.9914 23.751,-64.9914 23.751,-81.9914"/>
<text text-anchor="middle" x="11.7485" y="-70.7914" font-family="Times,serif" font-size="9.00" fill="#000000">&#45;1</text>
</g>
<!-- &#45;2 -->
<g id="node2" class="node">
<title>&#45;2</title>
<polygon fill="#d3d3d3" stroke="#000000" points="64.751,-81.9914 40.7461,-81.9914 40.7461,-64.9914 64.751,-64.9914 64.751,-81.9914"/>
<text text-anchor="middle" x="52.7485" y="-70.7914" font-family="Times,serif" font-size="9.00" fill="#000000">&#45;2</text>
</g>
<!-- &#45;3 -->
<g id="node3" class="node">
<title>&#45;3</title>
<polygon fill="#d3d3d3" stroke="#000000" points="105.751,-81.9914 81.7461,-81.9914 81.7461,-64.9914 105.751,-64.9914 105.751,-81.9914"/>
<text text-anchor="middle" x="93.7485" y="-70.7914" font-family="Times,serif" font-size="9.00" fill="#000000">&#45;3</text>
</g>
<!-- &#45;4 -->
<g id="node4" class="node">
<title>&#45;4</title>
<polygon fill="#d3d3d3" stroke="#000000" points="146.751,-81.9914 122.7461,-81.9914 122.7461,-64.9914 146.751,-64.9914 146.751,-81.9914"/>
<text text-anchor="middle" x="134.7485" y="-70.7914" font-family="Times,serif" font-size="9.00" fill="#000000">&#45;4</text>
</g>
<!-- 0 -->
<g id="node19" class="node">
<title>0</title>
<ellipse fill="#add8e6" stroke="#000000" cx="283.7485" cy="-14.4957" rx="14.4914" ry="14.4914"/>
<text text-anchor="middle" x="283.7485" y="-11.7957" font-family="Times,serif" font-size="9.00" fill="#000000">0</text>
</g>
<!-- &#45;4&#45;&gt;0 -->
<g id="edge2" class="edge">
<title>&#45;4&#45;&gt;0</title>
<path fill="none" stroke="#ff0000" stroke-width=".3537" d="M146.5697,-68.4009C149.2526,-67.2641 152.0938,-66.0748 154.7485,-64.9914 191.542,-49.9752 234.5806,-33.3067 260.4743,-23.3747"/>
<polygon fill="#ff0000" stroke="#ff0000" stroke-width=".3537" points="262.0516,-26.5186 270.1395,-19.675 259.5491,-19.9812 262.0516,-26.5186"/>
</g>
<!-- &#45;5 -->
<g id="node5" class="node">
<title>&#45;5</title>
<polygon fill="#d3d3d3" stroke="#000000" points="187.751,-81.9914 163.7461,-81.9914 163.7461,-64.9914 187.751,-64.9914 187.751,-81.9914"/>
<text text-anchor="middle" x="175.7485" y="-70.7914" font-family="Times,serif" font-size="9.00" fill="#000000">&#45;5</text>
</g>
<!-- &#45;5&#45;&gt;0 -->
<g id="edge7" class="edge">
<title>&#45;5&#45;&gt;0</title>
<path fill="none" stroke="#ff0000" stroke-width=".544" d="M187.7191,-66.9524C205.5956,-57.1872 239.5544,-38.637 261.9221,-26.4185"/>
<polygon fill="#ff0000" stroke="#ff0000" stroke-width=".544" points="263.6197,-29.4794 270.7179,-21.6138 260.2639,-23.3362 263.6197,-29.4794"/>
</g>
<!-- &#45;6 -->
<g id="node6" class="node">
<title>&#45;6</title>
<polygon fill="#d3d3d3" stroke="#000000" points="500.751,-81.9914 476.7461,-81.9914 476.7461,-64.9914 500.751,-64.9914 500.751,-81.9914"/>
<text text-anchor="middle" x="488.7485" y="-70.7914" font-family="Times,serif" font-size="9.00" fill="#000000">&#45;6</text>
</g>
<!-- &#45;7 -->
<g id="node7" class="node">
<title>&#45;7</title>
<polygon fill="#d3d3d3" stroke="#000000" points="541.751,-81.9914 517.7461,-81.9914 517.7461,-64.9914 541.751,-64.9914 541.751,-81.9914"/>
<text text-anchor="middle" x="529.7485" y="-70.7914" font-family="Times,serif" font-size="9.00" fill="#000000">&#45;7</text>
</g>
<!-- &#45;8 -->
<g id="node8" class="node">
<title>&#45;8</title>
<polygon fill="#d3d3d3" stroke="#000000" points="228.751,-81.9914 204.7461,-81.9914 204.7461,-64.9914 228.751,-64.9914 228.751,-81.9914"/>
<text text-anchor="middle" x="216.7485" y="-70.7914" font-family="Times,serif" font-size="9.00" fill="#000000">&#45;8</text>
</g>
<!-- &#45;8&#45;&gt;0 -->
<g id="edge5" class="edge">
<title>&#45;8&#45;&gt;0</title>
<path fill="none" stroke="#ff0000" stroke-width=".4828" stroke-dasharray="1,5" d="M226.6346,-64.7864C236.6676,-55.952 252.45,-42.0551 264.8842,-31.1064"/>
<polygon fill="#ff0000" stroke="#ff0000" stroke-width=".4828" points="267.2854,-33.6555 272.4776,-24.4201 262.6594,-28.4019 267.2854,-33.6555"/>
</g>
<!-- &#45;9 -->
<g id="node9" class="node">
<title>&#45;9</title>
<polygon fill="#d3d3d3" stroke="#000000" points="582.751,-81.9914 558.7461,-81.9914 558.7461,-64.9914 582.751,-64.9914 582.751,-81.9914"/>
<text text-anchor="middle" x="570.7485" y="-70.7914" font-family="Times,serif" font-size="9.00" fill="#000000">&#45;9</text>
</g>
<!-- &#45;10 -->
<g id="node10" class="node">
<title>&#45;10</title>
<polygon fill="#d3d3d3" stroke="#000000" points="274.7456,-81.9914 246.7515,-81.9914 246.7515,-64.9914 274.7456,-64.9914 274.7456,-81.9914"/>
<text text-anchor="middle" x="260.7485" y="-70.7914" font-family="Times,serif" font-size="9.00" fill="#000000">&#45;10</text>
</g>
<!-- &#45;10&#45;&gt;0 -->
<g id="edge6" class="edge">
<title>&#45;10&#45;&gt;0</title>
<path fill="none" stroke="#00ff00" stroke-width=".1206" stroke-dasharray="1,5" d="M264.1423,-64.7864C266.9245,-57.6498 270.9948,-47.2094 274.7066,-37.6884"/>
<polygon fill="#00ff00" stroke="#00ff00" stroke-width=".1206" points="278.0046,-38.8647 278.376,-28.2764 271.4827,-36.322 278.0046,-38.8647"/>
</g>
<!-- &#45;11 -->
<g id="node11" class="node">
<title>&#45;11</title>
<polygon fill="#d3d3d3" stroke="#000000" points="320.418,-81.9914 293.0791,-81.9914 293.0791,-64.9914 320.418,-64.9914 320.418,-81.9914"/>
<text text-anchor="middle" x="306.7485" y="-70.7914" font-family="Times,serif" font-size="9.00" fill="#000000">&#45;11</text>
</g>
<!-- &#45;11&#45;&gt;0 -->
<g id="edge3" class="edge">
<title>&#45;11&#45;&gt;0</title>
<path fill="none" stroke="#00ff00" stroke-width=".4783" d="M303.3548,-64.7864C300.5725,-57.6498 296.5023,-47.2094 292.7904,-37.6884"/>
<polygon fill="#00ff00" stroke="#00ff00" stroke-width=".4783" points="296.0144,-36.322 289.1211,-28.2764 289.4925,-38.8647 296.0144,-36.322"/>
</g>
<!-- &#45;12 -->
<g id="node12" class="node">
<title>&#45;12</title>
<polygon fill="#d3d3d3" stroke="#000000" points="628.7456,-81.9914 600.7515,-81.9914 600.7515,-64.9914 628.7456,-64.9914 628.7456,-81.9914"/>
<text text-anchor="middle" x="614.7485" y="-70.7914" font-family="Times,serif" font-size="9.00" fill="#000000">&#45;12</text>
</g>
<!-- &#45;13 -->
<g id="node13" class="node">
<title>&#45;13</title>
<polygon fill="#d3d3d3" stroke="#000000" points="674.7456,-81.9914 646.7515,-81.9914 646.7515,-64.9914 674.7456,-64.9914 674.7456,-81.9914"/>
<text text-anchor="middle" x="660.7485" y="-70.7914" font-family="Times,serif" font-size="9.00" fill="#000000">&#45;13</text>
</g>
<!-- &#45;14 -->
<g id="node14" class="node">
<title>&#45;14</title>
<polygon fill="#d3d3d3" stroke="#000000" points="366.7456,-81.9914 338.7515,-81.9914 338.7515,-64.9914 366.7456,-64.9914 366.7456,-81.9914"/>
<text text-anchor="middle" x="352.7485" y="-70.7914" font-family="Times,serif" font-size="9.00" fill="#000000">&#45;14</text>
</g>
<!-- &#45;14&#45;&gt;0 -->
<g id="edge1" class="edge">
<title>&#45;14&#45;&gt;0</title>
<path fill="none" stroke="#ff0000" stroke-width=".2734" d="M342.5673,-64.7864C332.1119,-55.8468 315.5935,-41.7235 302.7202,-30.7166"/>
<polygon fill="#ff0000" stroke="#ff0000" stroke-width=".2734" points="304.7624,-27.8578 294.8873,-24.0194 300.2134,-33.1782 304.7624,-27.8578"/>
</g>
<!-- &#45;15 -->
<g id="node15" class="node">
<title>&#45;15</title>
<polygon fill="#d3d3d3" stroke="#000000" points="720.7456,-81.9914 692.7515,-81.9914 692.7515,-64.9914 720.7456,-64.9914 720.7456,-81.9914"/>
<text text-anchor="middle" x="706.7485" y="-70.7914" font-family="Times,serif" font-size="9.00" fill="#000000">&#45;15</text>
</g>
<!-- &#45;16 -->
<g id="node16" class="node">
<title>&#45;16</title>
<polygon fill="#d3d3d3" stroke="#000000" points="412.7456,-81.9914 384.7515,-81.9914 384.7515,-64.9914 412.7456,-64.9914 412.7456,-81.9914"/>
<text text-anchor="middle" x="398.7485" y="-70.7914" font-family="Times,serif" font-size="9.00" fill="#000000">&#45;16</text>
</g>
<!-- &#45;16&#45;&gt;0 -->
<g id="edge8" class="edge">
<title>&#45;16&#45;&gt;0</title>
<path fill="none" stroke="#ff0000" stroke-width=".2938" d="M384.6473,-66.2573C365.0197,-56.1883 329.2628,-37.8448 306.0133,-25.9176"/>
<polygon fill="#ff0000" stroke="#ff0000" stroke-width=".2938" points="307.3936,-22.6921 296.8985,-21.2417 304.1984,-28.9203 307.3936,-22.6921"/>
</g>
<!-- &#45;17 -->
<g id="node17" class="node">
<title>&#45;17</title>
<polygon fill="#d3d3d3" stroke="#000000" points="458.7456,-81.9914 430.7515,-81.9914 430.7515,-64.9914 458.7456,-64.9914 458.7456,-81.9914"/>
<text text-anchor="middle" x="444.7485" y="-70.7914" font-family="Times,serif" font-size="9.00" fill="#000000">&#45;17</text>
</g>
<!-- &#45;17&#45;&gt;0 -->
<g id="edge4" class="edge">
<title>&#45;17&#45;&gt;0</title>
<path fill="none" stroke="#00ff00" stroke-width="1.9232" d="M430.6415,-68.2698C427.7031,-67.1844 424.6252,-66.0492 421.7485,-64.9914 381.4082,-50.1567 334.3954,-32.9776 306.9645,-22.9648"/>
<polygon fill="#00ff00" stroke="#00ff00" stroke-width="1.9232" points="308.0588,-19.6384 297.4648,-19.4981 305.659,-26.2142 308.0588,-19.6384"/>
</g>
<!-- &#45;18 -->
<g id="node18" class="node">
<title>&#45;18</title>
<polygon fill="#d3d3d3" stroke="#000000" points="766.7456,-81.9914 738.7515,-81.9914 738.7515,-64.9914 766.7456,-64.9914 766.7456,-81.9914"/>
<text text-anchor="middle" x="752.7485" y="-70.7914" font-family="Times,serif" font-size="9.00" fill="#000000">&#45;18</text>
</g>
</g>
</svg>
