<?xml version="1.0" encoding="utf-8" standalone="no"?>
<!DOCTYPE svg PUBLIC "-//W3C//DTD SVG 1.1//EN"
  "http://www.w3.org/Graphics/SVG/1.1/DTD/svg11.dtd">
<!-- Created with matplotlib (http://matplotlib.org/) -->
<svg height="345pt" version="1.1" viewBox="0 0 460 345" width="460pt" xmlns="http://www.w3.org/2000/svg" xmlns:xlink="http://www.w3.org/1999/xlink">
 <defs>
  <style type="text/css">
*{stroke-linecap:butt;stroke-linejoin:round;}
  </style>
 </defs>
 <g id="figure_1">
  <g id="patch_1">
   <path d="M 0 345.6 
L 460.8 345.6 
L 460.8 0 
L 0 0 
z
" style="fill:#ffffff;"/>
  </g>
  <g id="axes_1">
   <g id="patch_2">
    <path d="M 57.6 307.584 
L 414.72 307.584 
L 414.72 41.472 
L 57.6 41.472 
z
" style="fill:#ffffff;"/>
   </g>
   <g id="PolyCollection_1">
    <path clip-path="url(#pe39ad47beb)" d="M 73.832727 274.669714 
L 73.832727 307.584 
L 78.219951 307.584 
L 82.607174 307.584 
L 86.994398 307.584 
L 91.381622 307.584 
L 95.768845 307.584 
L 100.156069 307.584 
L 104.543292 307.584 
L 108.930516 307.584 
L 113.31774 307.584 
L 117.704963 307.584 
L 122.092187 307.584 
L 126.47941 307.584 
L 130.866634 307.584 
L 135.253857 307.584 
L 139.641081 307.584 
L 144.028305 307.584 
L 148.415528 307.584 
L 152.802752 307.584 
L 157.189975 307.584 
L 161.577199 307.584 
L 165.964423 307.584 
L 170.351646 307.584 
L 174.73887 307.584 
L 179.126093 307.584 
L 183.513317 307.584 
L 187.900541 307.584 
L 192.287764 307.584 
L 196.674988 307.584 
L 201.062211 307.584 
L 205.449435 307.584 
L 209.836658 307.584 
L 214.223882 307.584 
L 218.611106 307.584 
L 222.998329 307.584 
L 227.385553 307.584 
L 231.772776 307.584 
L 236.16 307.584 
L 240.547224 307.584 
L 244.934447 307.584 
L 249.321671 307.584 
L 253.708894 307.584 
L 258.096118 307.584 
L 262.483342 307.584 
L 266.870565 307.584 
L 271.257789 307.584 
L 275.645012 307.584 
L 280.032236 307.584 
L 284.419459 307.584 
L 288.806683 307.584 
L 293.193907 307.584 
L 297.58113 307.584 
L 301.968354 307.584 
L 306.355577 307.584 
L 310.742801 307.584 
L 315.130025 307.584 
L 319.517248 307.584 
L 323.904472 307.584 
L 328.291695 307.584 
L 332.678919 307.584 
L 337.066143 307.584 
L 341.453366 307.584 
L 345.84059 307.584 
L 350.227813 307.584 
L 354.615037 307.584 
L 359.00226 307.584 
L 363.389484 307.584 
L 367.776708 307.584 
L 372.163931 307.584 
L 376.551155 307.584 
L 380.938378 307.584 
L 385.325602 307.584 
L 389.712826 307.584 
L 394.100049 307.584 
L 398.487273 307.584 
L 398.487273 307.584 
L 398.487273 307.584 
L 394.100049 307.584 
L 389.712826 307.584 
L 385.325602 307.584 
L 380.938378 307.584 
L 376.551155 307.584 
L 372.163931 307.584 
L 367.776708 307.584 
L 363.389484 307.584 
L 359.00226 307.584 
L 354.615037 307.584 
L 350.227813 307.584 
L 345.84059 307.584 
L 341.453366 307.584 
L 337.066143 307.584 
L 332.678919 307.584 
L 328.291695 307.584 
L 323.904472 307.584 
L 319.517248 307.584 
L 315.130025 307.584 
L 310.742801 307.584 
L 306.355577 307.584 
L 301.968354 307.584 
L 297.58113 307.584 
L 293.193907 307.584 
L 288.806683 307.584 
L 284.419459 307.584 
L 280.032236 307.584 
L 275.645012 307.584 
L 271.257789 307.584 
L 266.870565 307.584 
L 262.483342 307.584 
L 258.096118 307.584 
L 253.708894 307.584 
L 249.321671 307.584 
L 244.934447 307.584 
L 240.547224 307.584 
L 236.16 307.584 
L 231.772776 307.584 
L 227.385553 222.006857 
L 222.998329 235.172571 
L 218.611106 238.464 
L 214.223882 258.212571 
L 209.836658 238.464 
L 205.449435 258.212571 
L 201.062211 248.338286 
L 196.674988 254.921143 
L 192.287764 251.629714 
L 187.900541 248.338286 
L 183.513317 241.755429 
L 179.126093 251.629714 
L 174.73887 261.504 
L 170.351646 268.086857 
L 165.964423 277.961143 
L 161.577199 225.298286 
L 157.189975 284.544 
L 152.802752 277.961143 
L 148.415528 281.252571 
L 144.028305 287.835429 
L 139.641081 258.212571 
L 135.253857 261.504 
L 130.866634 268.086857 
L 126.47941 258.212571 
L 122.092187 271.378286 
L 117.704963 271.378286 
L 113.31774 271.378286 
L 108.930516 274.669714 
L 104.543292 281.252571 
L 100.156069 251.629714 
L 95.768845 271.378286 
L 91.381622 268.086857 
L 86.994398 264.795429 
L 82.607174 271.378286 
L 78.219951 287.835429 
L 73.832727 274.669714 
z
" style="fill:#1f77b4;"/>
   </g>
   <g id="PolyCollection_2">
    <path clip-path="url(#pe39ad47beb)" d="M 73.832727 189.092571 
L 73.832727 274.669714 
L 78.219951 287.835429 
L 82.607174 271.378286 
L 86.994398 264.795429 
L 91.381622 268.086857 
L 95.768845 271.378286 
L 100.156069 251.629714 
L 104.543292 281.252571 
L 108.930516 274.669714 
L 113.31774 271.378286 
L 117.704963 271.378286 
L 122.092187 271.378286 
L 126.47941 258.212571 
L 130.866634 268.086857 
L 135.253857 261.504 
L 139.641081 258.212571 
L 144.028305 287.835429 
L 148.415528 281.252571 
L 152.802752 277.961143 
L 157.189975 284.544 
L 161.577199 225.298286 
L 165.964423 277.961143 
L 170.351646 268.086857 
L 174.73887 261.504 
L 179.126093 251.629714 
L 183.513317 241.755429 
L 187.900541 248.338286 
L 192.287764 251.629714 
L 196.674988 254.921143 
L 201.062211 248.338286 
L 205.449435 258.212571 
L 209.836658 238.464 
L 214.223882 258.212571 
L 218.611106 238.464 
L 222.998329 235.172571 
L 227.385553 222.006857 
L 231.772776 307.584 
L 236.16 307.584 
L 240.547224 307.584 
L 244.934447 307.584 
L 249.321671 307.584 
L 253.708894 307.584 
L 258.096118 307.584 
L 262.483342 307.584 
L 266.870565 307.584 
L 271.257789 307.584 
L 275.645012 307.584 
L 280.032236 307.584 
L 284.419459 307.584 
L 288.806683 307.584 
L 293.193907 307.584 
L 297.58113 307.584 
L 301.968354 307.584 
L 306.355577 307.584 
L 310.742801 307.584 
L 315.130025 307.584 
L 319.517248 307.584 
L 323.904472 307.584 
L 328.291695 307.584 
L 332.678919 307.584 
L 337.066143 307.584 
L 341.453366 307.584 
L 345.84059 307.584 
L 350.227813 307.584 
L 354.615037 307.584 
L 359.00226 307.584 
L 363.389484 307.584 
L 367.776708 307.584 
L 372.163931 307.584 
L 376.551155 307.584 
L 380.938378 307.584 
L 385.325602 307.584 
L 389.712826 307.584 
L 394.100049 307.584 
L 398.487273 307.584 
L 398.487273 307.584 
L 398.487273 307.584 
L 394.100049 307.584 
L 389.712826 307.584 
L 385.325602 307.584 
L 380.938378 307.584 
L 376.551155 307.584 
L 372.163931 307.584 
L 367.776708 307.584 
L 363.389484 307.584 
L 359.00226 307.584 
L 354.615037 307.584 
L 350.227813 307.584 
L 345.84059 307.584 
L 341.453366 307.584 
L 337.066143 307.584 
L 332.678919 307.584 
L 328.291695 307.584 
L 323.904472 307.584 
L 319.517248 307.584 
L 315.130025 307.584 
L 310.742801 307.584 
L 306.355577 307.584 
L 301.968354 307.584 
L 297.58113 307.584 
L 293.193907 307.584 
L 288.806683 307.584 
L 284.419459 307.584 
L 280.032236 307.584 
L 275.645012 307.584 
L 271.257789 307.584 
L 266.870565 307.584 
L 262.483342 307.584 
L 258.096118 307.584 
L 253.708894 307.584 
L 249.321671 307.584 
L 244.934447 307.584 
L 240.547224 307.584 
L 236.16 307.584 
L 231.772776 307.584 
L 227.385553 222.006857 
L 222.998329 235.172571 
L 218.611106 238.464 
L 214.223882 258.212571 
L 209.836658 238.464 
L 205.449435 258.212571 
L 201.062211 248.338286 
L 196.674988 254.921143 
L 192.287764 251.629714 
L 187.900541 248.338286 
L 183.513317 241.755429 
L 179.126093 251.629714 
L 174.73887 261.504 
L 170.351646 268.086857 
L 165.964423 218.715429 
L 161.577199 212.132571 
L 157.189975 264.795429 
L 152.802752 268.086857 
L 148.415528 231.881143 
L 144.028305 231.881143 
L 139.641081 225.298286 
L 135.253857 225.298286 
L 130.866634 225.298286 
L 126.47941 225.298286 
L 122.092187 238.464 
L 117.704963 235.172571 
L 113.31774 238.464 
L 108.930516 264.795429 
L 104.543292 264.795429 
L 100.156069 192.384 
L 95.768845 231.881143 
L 91.381622 162.761143 
L 86.994398 205.549714 
L 82.607174 166.052571 
L 78.219951 189.092571 
L 73.832727 189.092571 
z
" style="fill:#ff7f0e;"/>
   </g>
   <g id="PolyCollection_3">
    <path clip-path="url(#pe39ad47beb)" d="M 73.832727 110.098286 
L 73.832727 189.092571 
L 78.219951 189.092571 
L 82.607174 166.052571 
L 86.994398 205.549714 
L 91.381622 162.761143 
L 95.768845 231.881143 
L 100.156069 192.384 
L 104.543292 264.795429 
L 108.930516 264.795429 
L 113.31774 238.464 
L 117.704963 235.172571 
L 122.092187 238.464 
L 126.47941 225.298286 
L 130.866634 225.298286 
L 135.253857 225.298286 
L 139.641081 225.298286 
L 144.028305 231.881143 
L 148.415528 231.881143 
L 152.802752 268.086857 
L 157.189975 264.795429 
L 161.577199 212.132571 
L 165.964423 218.715429 
L 170.351646 268.086857 
L 174.73887 261.504 
L 179.126093 251.629714 
L 183.513317 241.755429 
L 187.900541 248.338286 
L 192.287764 251.629714 
L 196.674988 254.921143 
L 201.062211 248.338286 
L 205.449435 258.212571 
L 209.836658 238.464 
L 214.223882 258.212571 
L 218.611106 238.464 
L 222.998329 235.172571 
L 227.385553 222.006857 
L 231.772776 307.584 
L 236.16 307.584 
L 240.547224 307.584 
L 244.934447 307.584 
L 249.321671 307.584 
L 253.708894 307.584 
L 258.096118 307.584 
L 262.483342 307.584 
L 266.870565 307.584 
L 271.257789 307.584 
L 275.645012 307.584 
L 280.032236 307.584 
L 284.419459 307.584 
L 288.806683 307.584 
L 293.193907 307.584 
L 297.58113 307.584 
L 301.968354 307.584 
L 306.355577 307.584 
L 310.742801 307.584 
L 315.130025 307.584 
L 319.517248 307.584 
L 323.904472 307.584 
L 328.291695 307.584 
L 332.678919 307.584 
L 337.066143 307.584 
L 341.453366 307.584 
L 345.84059 307.584 
L 350.227813 307.584 
L 354.615037 307.584 
L 359.00226 307.584 
L 363.389484 307.584 
L 367.776708 307.584 
L 372.163931 307.584 
L 376.551155 307.584 
L 380.938378 307.584 
L 385.325602 307.584 
L 389.712826 307.584 
L 394.100049 307.584 
L 398.487273 307.584 
L 398.487273 307.584 
L 398.487273 307.584 
L 394.100049 307.584 
L 389.712826 307.584 
L 385.325602 307.584 
L 380.938378 307.584 
L 376.551155 307.584 
L 372.163931 307.584 
L 367.776708 307.584 
L 363.389484 307.584 
L 359.00226 307.584 
L 354.615037 307.584 
L 350.227813 307.584 
L 345.84059 307.584 
L 341.453366 307.584 
L 337.066143 307.584 
L 332.678919 307.584 
L 328.291695 307.584 
L 323.904472 307.584 
L 319.517248 307.584 
L 315.130025 307.584 
L 310.742801 307.584 
L 306.355577 307.584 
L 301.968354 307.584 
L 297.58113 307.584 
L 293.193907 307.584 
L 288.806683 307.584 
L 284.419459 307.584 
L 280.032236 307.584 
L 275.645012 307.584 
L 271.257789 307.584 
L 266.870565 307.584 
L 262.483342 307.584 
L 258.096118 307.584 
L 253.708894 307.584 
L 249.321671 307.584 
L 244.934447 307.584 
L 240.547224 307.584 
L 236.16 307.584 
L 231.772776 307.584 
L 227.385553 222.006857 
L 222.998329 235.172571 
L 218.611106 238.464 
L 214.223882 208.841143 
L 209.836658 192.384 
L 205.449435 208.841143 
L 201.062211 202.258286 
L 196.674988 205.549714 
L 192.287764 205.549714 
L 187.900541 198.966857 
L 183.513317 185.801143 
L 179.126093 198.966857 
L 174.73887 208.841143 
L 170.351646 208.841143 
L 165.964423 169.344 
L 161.577199 166.052571 
L 157.189975 215.424 
L 152.802752 212.132571 
L 148.415528 179.218286 
L 144.028305 175.926857 
L 139.641081 172.635429 
L 135.253857 169.344 
L 130.866634 172.635429 
L 126.47941 172.635429 
L 122.092187 189.092571 
L 117.704963 182.509714 
L 113.31774 189.092571 
L 108.930516 208.841143 
L 104.543292 189.092571 
L 100.156069 189.092571 
L 95.768845 202.258286 
L 91.381622 143.012571 
L 86.994398 159.469714 
L 82.607174 116.681143 
L 78.219951 126.555429 
L 73.832727 110.098286 
z
" style="fill:#2ca02c;"/>
   </g>
   <g id="PolyCollection_4">
    <path clip-path="url(#pe39ad47beb)" d="M 73.832727 70.601143 
L 73.832727 110.098286 
L 78.219951 126.555429 
L 82.607174 116.681143 
L 86.994398 159.469714 
L 91.381622 143.012571 
L 95.768845 202.258286 
L 100.156069 189.092571 
L 104.543292 189.092571 
L 108.930516 208.841143 
L 113.31774 189.092571 
L 117.704963 182.509714 
L 122.092187 189.092571 
L 126.47941 172.635429 
L 130.866634 172.635429 
L 135.253857 169.344 
L 139.641081 172.635429 
L 144.028305 175.926857 
L 148.415528 179.218286 
L 152.802752 212.132571 
L 157.189975 215.424 
L 161.577199 166.052571 
L 165.964423 169.344 
L 170.351646 208.841143 
L 174.73887 208.841143 
L 179.126093 198.966857 
L 183.513317 185.801143 
L 187.900541 198.966857 
L 192.287764 205.549714 
L 196.674988 205.549714 
L 201.062211 202.258286 
L 205.449435 208.841143 
L 209.836658 192.384 
L 214.223882 208.841143 
L 218.611106 238.464 
L 222.998329 235.172571 
L 227.385553 222.006857 
L 231.772776 307.584 
L 236.16 307.584 
L 240.547224 307.584 
L 244.934447 307.584 
L 249.321671 307.584 
L 253.708894 307.584 
L 258.096118 307.584 
L 262.483342 307.584 
L 266.870565 307.584 
L 271.257789 307.584 
L 275.645012 307.584 
L 280.032236 307.584 
L 284.419459 307.584 
L 288.806683 307.584 
L 293.193907 307.584 
L 297.58113 307.584 
L 301.968354 307.584 
L 306.355577 307.584 
L 310.742801 307.584 
L 315.130025 307.584 
L 319.517248 307.584 
L 323.904472 307.584 
L 328.291695 307.584 
L 332.678919 307.584 
L 337.066143 307.584 
L 341.453366 307.584 
L 345.84059 307.584 
L 350.227813 307.584 
L 354.615037 307.584 
L 359.00226 307.584 
L 363.389484 307.584 
L 367.776708 307.584 
L 372.163931 307.584 
L 376.551155 307.584 
L 380.938378 307.584 
L 385.325602 307.584 
L 389.712826 307.584 
L 394.100049 307.584 
L 398.487273 307.584 
L 398.487273 215.424 
L 398.487273 215.424 
L 394.100049 205.549714 
L 389.712826 212.132571 
L 385.325602 202.258286 
L 380.938378 212.132571 
L 376.551155 208.841143 
L 372.163931 202.258286 
L 367.776708 198.966857 
L 363.389484 195.675429 
L 359.00226 166.052571 
L 354.615037 166.052571 
L 350.227813 159.469714 
L 345.84059 162.761143 
L 341.453366 172.635429 
L 337.066143 162.761143 
L 332.678919 172.635429 
L 328.291695 185.801143 
L 323.904472 175.926857 
L 319.517248 172.635429 
L 315.130025 189.092571 
L 310.742801 185.801143 
L 306.355577 189.092571 
L 301.968354 179.218286 
L 297.58113 175.926857 
L 293.193907 179.218286 
L 288.806683 175.926857 
L 284.419459 172.635429 
L 280.032236 189.092571 
L 275.645012 195.675429 
L 271.257789 175.926857 
L 266.870565 175.926857 
L 262.483342 179.218286 
L 258.096118 175.926857 
L 253.708894 166.052571 
L 249.321671 175.926857 
L 244.934447 166.052571 
L 240.547224 182.509714 
L 236.16 182.509714 
L 231.772776 169.344 
L 227.385553 119.972571 
L 222.998329 172.635429 
L 218.611106 169.344 
L 214.223882 162.761143 
L 209.836658 143.012571 
L 205.449435 156.178286 
L 201.062211 152.886857 
L 196.674988 146.304 
L 192.287764 152.886857 
L 187.900541 143.012571 
L 183.513317 136.429714 
L 179.126093 143.012571 
L 174.73887 146.304 
L 170.351646 156.178286 
L 165.964423 129.846857 
L 161.577199 139.721143 
L 157.189975 162.761143 
L 152.802752 136.429714 
L 148.415528 113.389714 
L 144.028305 113.389714 
L 139.641081 106.806857 
L 135.253857 96.932571 
L 130.866634 96.932571 
L 126.47941 83.766857 
L 122.092187 106.806857 
L 117.704963 110.098286 
L 113.31774 110.098286 
L 108.930516 113.389714 
L 104.543292 110.098286 
L 100.156069 110.098286 
L 95.768845 106.806857 
L 91.381622 96.932571 
L 86.994398 90.349714 
L 82.607174 83.766857 
L 78.219951 73.892571 
L 73.832727 70.601143 
z
" style="fill:#d62728;"/>
   </g>
   <g id="PolyCollection_5">
    <path clip-path="url(#pe39ad47beb)" d="M 73.832727 60.726857 
L 73.832727 70.601143 
L 78.219951 73.892571 
L 82.607174 83.766857 
L 86.994398 90.349714 
L 91.381622 96.932571 
L 95.768845 106.806857 
L 100.156069 110.098286 
L 104.543292 110.098286 
L 108.930516 113.389714 
L 113.31774 110.098286 
L 117.704963 110.098286 
L 122.092187 106.806857 
L 126.47941 83.766857 
L 130.866634 96.932571 
L 135.253857 96.932571 
L 139.641081 106.806857 
L 144.028305 113.389714 
L 148.415528 113.389714 
L 152.802752 136.429714 
L 157.189975 162.761143 
L 161.577199 139.721143 
L 165.964423 129.846857 
L 170.351646 156.178286 
L 174.73887 146.304 
L 179.126093 143.012571 
L 183.513317 136.429714 
L 187.900541 143.012571 
L 192.287764 152.886857 
L 196.674988 146.304 
L 201.062211 152.886857 
L 205.449435 156.178286 
L 209.836658 143.012571 
L 214.223882 162.761143 
L 218.611106 169.344 
L 222.998329 172.635429 
L 227.385553 119.972571 
L 231.772776 169.344 
L 236.16 182.509714 
L 240.547224 182.509714 
L 244.934447 166.052571 
L 249.321671 175.926857 
L 253.708894 166.052571 
L 258.096118 175.926857 
L 262.483342 179.218286 
L 266.870565 175.926857 
L 271.257789 175.926857 
L 275.645012 195.675429 
L 280.032236 189.092571 
L 284.419459 172.635429 
L 288.806683 175.926857 
L 293.193907 179.218286 
L 297.58113 175.926857 
L 301.968354 179.218286 
L 306.355577 189.092571 
L 310.742801 185.801143 
L 315.130025 189.092571 
L 319.517248 172.635429 
L 323.904472 175.926857 
L 328.291695 185.801143 
L 332.678919 172.635429 
L 337.066143 162.761143 
L 341.453366 172.635429 
L 345.84059 162.761143 
L 350.227813 159.469714 
L 354.615037 166.052571 
L 359.00226 166.052571 
L 363.389484 195.675429 
L 367.776708 198.966857 
L 372.163931 202.258286 
L 376.551155 208.841143 
L 380.938378 212.132571 
L 385.325602 202.258286 
L 389.712826 212.132571 
L 394.100049 205.549714 
L 398.487273 215.424 
L 398.487273 215.424 
L 398.487273 215.424 
L 394.100049 205.549714 
L 389.712826 212.132571 
L 385.325602 202.258286 
L 380.938378 212.132571 
L 376.551155 208.841143 
L 372.163931 202.258286 
L 367.776708 198.966857 
L 363.389484 195.675429 
L 359.00226 166.052571 
L 354.615037 166.052571 
L 350.227813 159.469714 
L 345.84059 162.761143 
L 341.453366 172.635429 
L 337.066143 162.761143 
L 332.678919 172.635429 
L 328.291695 185.801143 
L 323.904472 175.926857 
L 319.517248 172.635429 
L 315.130025 189.092571 
L 310.742801 185.801143 
L 306.355577 189.092571 
L 301.968354 179.218286 
L 297.58113 175.926857 
L 293.193907 179.218286 
L 288.806683 175.926857 
L 284.419459 172.635429 
L 280.032236 189.092571 
L 275.645012 195.675429 
L 271.257789 175.926857 
L 266.870565 175.926857 
L 262.483342 179.218286 
L 258.096118 175.926857 
L 253.708894 166.052571 
L 249.321671 175.926857 
L 244.934447 166.052571 
L 240.547224 182.509714 
L 236.16 182.509714 
L 231.772776 169.344 
L 227.385553 119.972571 
L 222.998329 110.098286 
L 218.611106 110.098286 
L 214.223882 116.681143 
L 209.836658 93.641143 
L 205.449435 106.806857 
L 201.062211 106.806857 
L 196.674988 103.515429 
L 192.287764 106.806857 
L 187.900541 100.224 
L 183.513317 96.932571 
L 179.126093 96.932571 
L 174.73887 96.932571 
L 170.351646 103.515429 
L 165.964423 87.058286 
L 161.577199 93.641143 
L 157.189975 113.389714 
L 152.802752 83.766857 
L 148.415528 57.435429 
L 144.028305 60.726857 
L 139.641081 57.435429 
L 135.253857 54.144 
L 130.866634 60.726857 
L 126.47941 57.435429 
L 122.092187 60.726857 
L 117.704963 60.726857 
L 113.31774 57.435429 
L 108.930516 57.435429 
L 104.543292 57.435429 
L 100.156069 57.435429 
L 95.768845 57.435429 
L 91.381622 57.435429 
L 86.994398 64.018286 
L 82.607174 64.018286 
L 78.219951 64.018286 
L 73.832727 60.726857 
z
" style="fill:#9467bd;"/>
   </g>
   <g id="PolyCollection_6">
    <path clip-path="url(#pe39ad47beb)" d="M 73.832727 60.726857 
L 73.832727 60.726857 
L 78.219951 64.018286 
L 82.607174 64.018286 
L 86.994398 64.018286 
L 91.381622 57.435429 
L 95.768845 57.435429 
L 100.156069 57.435429 
L 104.543292 57.435429 
L 108.930516 57.435429 
L 113.31774 57.435429 
L 117.704963 60.726857 
L 122.092187 60.726857 
L 126.47941 57.435429 
L 130.866634 60.726857 
L 135.253857 54.144 
L 139.641081 57.435429 
L 144.028305 60.726857 
L 148.415528 57.435429 
L 152.802752 83.766857 
L 157.189975 113.389714 
L 161.577199 93.641143 
L 165.964423 87.058286 
L 170.351646 103.515429 
L 174.73887 96.932571 
L 179.126093 96.932571 
L 183.513317 96.932571 
L 187.900541 100.224 
L 192.287764 106.806857 
L 196.674988 103.515429 
L 201.062211 106.806857 
L 205.449435 106.806857 
L 209.836658 93.641143 
L 214.223882 116.681143 
L 218.611106 110.098286 
L 222.998329 110.098286 
L 227.385553 119.972571 
L 231.772776 169.344 
L 236.16 182.509714 
L 240.547224 182.509714 
L 244.934447 166.052571 
L 249.321671 175.926857 
L 253.708894 166.052571 
L 258.096118 175.926857 
L 262.483342 179.218286 
L 266.870565 175.926857 
L 271.257789 175.926857 
L 275.645012 195.675429 
L 280.032236 189.092571 
L 284.419459 172.635429 
L 288.806683 175.926857 
L 293.193907 179.218286 
L 297.58113 175.926857 
L 301.968354 179.218286 
L 306.355577 189.092571 
L 310.742801 185.801143 
L 315.130025 189.092571 
L 319.517248 172.635429 
L 323.904472 175.926857 
L 328.291695 185.801143 
L 332.678919 172.635429 
L 337.066143 162.761143 
L 341.453366 172.635429 
L 345.84059 162.761143 
L 350.227813 159.469714 
L 354.615037 166.052571 
L 359.00226 166.052571 
L 363.389484 195.675429 
L 367.776708 198.966857 
L 372.163931 202.258286 
L 376.551155 208.841143 
L 380.938378 212.132571 
L 385.325602 202.258286 
L 389.712826 212.132571 
L 394.100049 205.549714 
L 398.487273 215.424 
L 398.487273 149.595429 
L 398.487273 149.595429 
L 394.100049 146.304 
L 389.712826 143.012571 
L 385.325602 136.429714 
L 380.938378 143.012571 
L 376.551155 139.721143 
L 372.163931 146.304 
L 367.776708 133.138286 
L 363.389484 113.389714 
L 359.00226 77.184 
L 354.615037 60.726857 
L 350.227813 60.726857 
L 345.84059 60.726857 
L 341.453366 60.726857 
L 337.066143 60.726857 
L 332.678919 60.726857 
L 328.291695 60.726857 
L 323.904472 60.726857 
L 319.517248 60.726857 
L 315.130025 60.726857 
L 310.742801 60.726857 
L 306.355577 60.726857 
L 301.968354 60.726857 
L 297.58113 60.726857 
L 293.193907 60.726857 
L 288.806683 60.726857 
L 284.419459 60.726857 
L 280.032236 60.726857 
L 275.645012 60.726857 
L 271.257789 60.726857 
L 266.870565 60.726857 
L 262.483342 60.726857 
L 258.096118 60.726857 
L 253.708894 60.726857 
L 249.321671 60.726857 
L 244.934447 60.726857 
L 240.547224 60.726857 
L 236.16 60.726857 
L 231.772776 60.726857 
L 227.385553 60.726857 
L 222.998329 57.435429 
L 218.611106 57.435429 
L 214.223882 64.018286 
L 209.836658 54.144 
L 205.449435 67.309714 
L 201.062211 60.726857 
L 196.674988 60.726857 
L 192.287764 57.435429 
L 187.900541 57.435429 
L 183.513317 57.435429 
L 179.126093 64.018286 
L 174.73887 57.435429 
L 170.351646 60.726857 
L 165.964423 60.726857 
L 161.577199 57.435429 
L 157.189975 60.726857 
L 152.802752 60.726857 
L 148.415528 57.435429 
L 144.028305 60.726857 
L 139.641081 57.435429 
L 135.253857 54.144 
L 130.866634 60.726857 
L 126.47941 57.435429 
L 122.092187 60.726857 
L 117.704963 60.726857 
L 113.31774 57.435429 
L 108.930516 57.435429 
L 104.543292 57.435429 
L 100.156069 57.435429 
L 95.768845 57.435429 
L 91.381622 57.435429 
L 86.994398 64.018286 
L 82.607174 64.018286 
L 78.219951 64.018286 
L 73.832727 60.726857 
z
" style="fill:#8c564b;"/>
   </g>
   <g id="PolyCollection_7">
    <path clip-path="url(#pe39ad47beb)" d="M 73.832727 60.726857 
L 73.832727 60.726857 
L 78.219951 64.018286 
L 82.607174 64.018286 
L 86.994398 64.018286 
L 91.381622 57.435429 
L 95.768845 57.435429 
L 100.156069 57.435429 
L 104.543292 57.435429 
L 108.930516 57.435429 
L 113.31774 57.435429 
L 117.704963 60.726857 
L 122.092187 60.726857 
L 126.47941 57.435429 
L 130.866634 60.726857 
L 135.253857 54.144 
L 139.641081 57.435429 
L 144.028305 60.726857 
L 148.415528 57.435429 
L 152.802752 60.726857 
L 157.189975 60.726857 
L 161.577199 57.435429 
L 165.964423 60.726857 
L 170.351646 60.726857 
L 174.73887 57.435429 
L 179.126093 64.018286 
L 183.513317 57.435429 
L 187.900541 57.435429 
L 192.287764 57.435429 
L 196.674988 60.726857 
L 201.062211 60.726857 
L 205.449435 67.309714 
L 209.836658 54.144 
L 214.223882 64.018286 
L 218.611106 57.435429 
L 222.998329 57.435429 
L 227.385553 60.726857 
L 231.772776 60.726857 
L 236.16 60.726857 
L 240.547224 60.726857 
L 244.934447 60.726857 
L 249.321671 60.726857 
L 253.708894 60.726857 
L 258.096118 60.726857 
L 262.483342 60.726857 
L 266.870565 60.726857 
L 271.257789 60.726857 
L 275.645012 60.726857 
L 280.032236 60.726857 
L 284.419459 60.726857 
L 288.806683 60.726857 
L 293.193907 60.726857 
L 297.58113 60.726857 
L 301.968354 60.726857 
L 306.355577 60.726857 
L 310.742801 60.726857 
L 315.130025 60.726857 
L 319.517248 60.726857 
L 323.904472 60.726857 
L 328.291695 60.726857 
L 332.678919 60.726857 
L 337.066143 60.726857 
L 341.453366 60.726857 
L 345.84059 60.726857 
L 350.227813 60.726857 
L 354.615037 60.726857 
L 359.00226 77.184 
L 363.389484 113.389714 
L 367.776708 133.138286 
L 372.163931 146.304 
L 376.551155 139.721143 
L 380.938378 143.012571 
L 385.325602 136.429714 
L 389.712826 143.012571 
L 394.100049 146.304 
L 398.487273 149.595429 
L 398.487273 57.435429 
L 398.487273 57.435429 
L 394.100049 60.726857 
L 389.712826 60.726857 
L 385.325602 60.726857 
L 380.938378 60.726857 
L 376.551155 64.018286 
L 372.163931 64.018286 
L 367.776708 60.726857 
L 363.389484 60.726857 
L 359.00226 60.726857 
L 354.615037 60.726857 
L 350.227813 60.726857 
L 345.84059 60.726857 
L 341.453366 60.726857 
L 337.066143 60.726857 
L 332.678919 60.726857 
L 328.291695 60.726857 
L 323.904472 60.726857 
L 319.517248 60.726857 
L 315.130025 60.726857 
L 310.742801 60.726857 
L 306.355577 60.726857 
L 301.968354 60.726857 
L 297.58113 60.726857 
L 293.193907 60.726857 
L 288.806683 60.726857 
L 284.419459 60.726857 
L 280.032236 60.726857 
L 275.645012 60.726857 
L 271.257789 60.726857 
L 266.870565 60.726857 
L 262.483342 60.726857 
L 258.096118 60.726857 
L 253.708894 60.726857 
L 249.321671 60.726857 
L 244.934447 60.726857 
L 240.547224 60.726857 
L 236.16 60.726857 
L 231.772776 60.726857 
L 227.385553 60.726857 
L 222.998329 57.435429 
L 218.611106 57.435429 
L 214.223882 64.018286 
L 209.836658 54.144 
L 205.449435 67.309714 
L 201.062211 60.726857 
L 196.674988 60.726857 
L 192.287764 57.435429 
L 187.900541 57.435429 
L 183.513317 57.435429 
L 179.126093 64.018286 
L 174.73887 57.435429 
L 170.351646 60.726857 
L 165.964423 60.726857 
L 161.577199 57.435429 
L 157.189975 60.726857 
L 152.802752 60.726857 
L 148.415528 57.435429 
L 144.028305 60.726857 
L 139.641081 57.435429 
L 135.253857 54.144 
L 130.866634 60.726857 
L 126.47941 57.435429 
L 122.092187 60.726857 
L 117.704963 60.726857 
L 113.31774 57.435429 
L 108.930516 57.435429 
L 104.543292 57.435429 
L 100.156069 57.435429 
L 95.768845 57.435429 
L 91.381622 57.435429 
L 86.994398 64.018286 
L 82.607174 64.018286 
L 78.219951 64.018286 
L 73.832727 60.726857 
z
" style="fill:#e377c2;"/>
   </g>
   <g id="matplotlib.axis_1">
    <g id="xtick_1">
     <g id="line2d_1">
      <defs>
       <path d="M 0 0 
L 0 3.5 
" id="m27363f5b99" style="stroke:#000000;stroke-width:0.8;"/>
      </defs>
      <g>
       <use style="stroke:#000000;stroke-width:0.8;" x="73.832727" xlink:href="#m27363f5b99" y="307.584"/>
      </g>
     </g>
     <g id="text_1">
      <!-- 0 -->
      <defs>
       <path d="M 31.78125 66.40625 
Q 24.171875 66.40625 20.328125 58.90625 
Q 16.5 51.421875 16.5 36.375 
Q 16.5 21.390625 20.328125 13.890625 
Q 24.171875 6.390625 31.78125 6.390625 
Q 39.453125 6.390625 43.28125 13.890625 
Q 47.125 21.390625 47.125 36.375 
Q 47.125 51.421875 43.28125 58.90625 
Q 39.453125 66.40625 31.78125 66.40625 
z
M 31.78125 74.21875 
Q 44.046875 74.21875 50.515625 64.515625 
Q 56.984375 54.828125 56.984375 36.375 
Q 56.984375 17.96875 50.515625 8.265625 
Q 44.046875 -1.421875 31.78125 -1.421875 
Q 19.53125 -1.421875 13.0625 8.265625 
Q 6.59375 17.96875 6.59375 36.375 
Q 6.59375 54.828125 13.0625 64.515625 
Q 19.53125 74.21875 31.78125 74.21875 
z
" id="DejaVuSans-30"/>
      </defs>
      <g transform="translate(70.651477 322.182437)scale(0.1 -0.1)">
       <use xlink:href="#DejaVuSans-30"/>
      </g>
     </g>
    </g>
    <g id="xtick_2">
     <g id="line2d_2">
      <g>
       <use style="stroke:#000000;stroke-width:0.8;" x="117.704963" xlink:href="#m27363f5b99" y="307.584"/>
      </g>
     </g>
     <g id="text_2">
      <!-- 10 -->
      <defs>
       <path d="M 12.40625 8.296875 
L 28.515625 8.296875 
L 28.515625 63.921875 
L 10.984375 60.40625 
L 10.984375 69.390625 
L 28.421875 72.90625 
L 38.28125 72.90625 
L 38.28125 8.296875 
L 54.390625 8.296875 
L 54.390625 0 
L 12.40625 0 
z
" id="DejaVuSans-31"/>
      </defs>
      <g transform="translate(111.342463 322.182437)scale(0.1 -0.1)">
       <use xlink:href="#DejaVuSans-31"/>
       <use x="63.623047" xlink:href="#DejaVuSans-30"/>
      </g>
     </g>
    </g>
    <g id="xtick_3">
     <g id="line2d_3">
      <g>
       <use style="stroke:#000000;stroke-width:0.8;" x="161.577199" xlink:href="#m27363f5b99" y="307.584"/>
      </g>
     </g>
     <g id="text_3">
      <!-- 20 -->
      <defs>
       <path d="M 19.1875 8.296875 
L 53.609375 8.296875 
L 53.609375 0 
L 7.328125 0 
L 7.328125 8.296875 
Q 12.9375 14.109375 22.625 23.890625 
Q 32.328125 33.6875 34.8125 36.53125 
Q 39.546875 41.84375 41.421875 45.53125 
Q 43.3125 49.21875 43.3125 52.78125 
Q 43.3125 58.59375 39.234375 62.25 
Q 35.15625 65.921875 28.609375 65.921875 
Q 23.96875 65.921875 18.8125 64.3125 
Q 13.671875 62.703125 7.8125 59.421875 
L 7.8125 69.390625 
Q 13.765625 71.78125 18.9375 73 
Q 24.125 74.21875 28.421875 74.21875 
Q 39.75 74.21875 46.484375 68.546875 
Q 53.21875 62.890625 53.21875 53.421875 
Q 53.21875 48.921875 51.53125 44.890625 
Q 49.859375 40.875 45.40625 35.40625 
Q 44.1875 33.984375 37.640625 27.21875 
Q 31.109375 20.453125 19.1875 8.296875 
z
" id="DejaVuSans-32"/>
      </defs>
      <g transform="translate(155.214699 322.182437)scale(0.1 -0.1)">
       <use xlink:href="#DejaVuSans-32"/>
       <use x="63.623047" xlink:href="#DejaVuSans-30"/>
      </g>
     </g>
    </g>
    <g id="xtick_4">
     <g id="line2d_4">
      <g>
       <use style="stroke:#000000;stroke-width:0.8;" x="205.449435" xlink:href="#m27363f5b99" y="307.584"/>
      </g>
     </g>
     <g id="text_4">
      <!-- 30 -->
      <defs>
       <path d="M 40.578125 39.3125 
Q 47.65625 37.796875 51.625 33 
Q 55.609375 28.21875 55.609375 21.1875 
Q 55.609375 10.40625 48.1875 4.484375 
Q 40.765625 -1.421875 27.09375 -1.421875 
Q 22.515625 -1.421875 17.65625 -0.515625 
Q 12.796875 0.390625 7.625 2.203125 
L 7.625 11.71875 
Q 11.71875 9.328125 16.59375 8.109375 
Q 21.484375 6.890625 26.8125 6.890625 
Q 36.078125 6.890625 40.9375 10.546875 
Q 45.796875 14.203125 45.796875 21.1875 
Q 45.796875 27.640625 41.28125 31.265625 
Q 36.765625 34.90625 28.71875 34.90625 
L 20.21875 34.90625 
L 20.21875 43.015625 
L 29.109375 43.015625 
Q 36.375 43.015625 40.234375 45.921875 
Q 44.09375 48.828125 44.09375 54.296875 
Q 44.09375 59.90625 40.109375 62.90625 
Q 36.140625 65.921875 28.71875 65.921875 
Q 24.65625 65.921875 20.015625 65.03125 
Q 15.375 64.15625 9.8125 62.3125 
L 9.8125 71.09375 
Q 15.4375 72.65625 20.34375 73.4375 
Q 25.25 74.21875 29.59375 74.21875 
Q 40.828125 74.21875 47.359375 69.109375 
Q 53.90625 64.015625 53.90625 55.328125 
Q 53.90625 49.265625 50.4375 45.09375 
Q 46.96875 40.921875 40.578125 39.3125 
z
" id="DejaVuSans-33"/>
      </defs>
      <g transform="translate(199.086935 322.182437)scale(0.1 -0.1)">
       <use xlink:href="#DejaVuSans-33"/>
       <use x="63.623047" xlink:href="#DejaVuSans-30"/>
      </g>
     </g>
    </g>
    <g id="xtick_5">
     <g id="line2d_5">
      <g>
       <use style="stroke:#000000;stroke-width:0.8;" x="249.321671" xlink:href="#m27363f5b99" y="307.584"/>
      </g>
     </g>
     <g id="text_5">
      <!-- 40 -->
      <defs>
       <path d="M 37.796875 64.3125 
L 12.890625 25.390625 
L 37.796875 25.390625 
z
M 35.203125 72.90625 
L 47.609375 72.90625 
L 47.609375 25.390625 
L 58.015625 25.390625 
L 58.015625 17.1875 
L 47.609375 17.1875 
L 47.609375 0 
L 37.796875 0 
L 37.796875 17.1875 
L 4.890625 17.1875 
L 4.890625 26.703125 
z
" id="DejaVuSans-34"/>
      </defs>
      <g transform="translate(242.959171 322.182437)scale(0.1 -0.1)">
       <use xlink:href="#DejaVuSans-34"/>
       <use x="63.623047" xlink:href="#DejaVuSans-30"/>
      </g>
     </g>
    </g>
    <g id="xtick_6">
     <g id="line2d_6">
      <g>
       <use style="stroke:#000000;stroke-width:0.8;" x="293.193907" xlink:href="#m27363f5b99" y="307.584"/>
      </g>
     </g>
     <g id="text_6">
      <!-- 50 -->
      <defs>
       <path d="M 10.796875 72.90625 
L 49.515625 72.90625 
L 49.515625 64.59375 
L 19.828125 64.59375 
L 19.828125 46.734375 
Q 21.96875 47.46875 24.109375 47.828125 
Q 26.265625 48.1875 28.421875 48.1875 
Q 40.625 48.1875 47.75 41.5 
Q 54.890625 34.8125 54.890625 23.390625 
Q 54.890625 11.625 47.5625 5.09375 
Q 40.234375 -1.421875 26.90625 -1.421875 
Q 22.3125 -1.421875 17.546875 -0.640625 
Q 12.796875 0.140625 7.71875 1.703125 
L 7.71875 11.625 
Q 12.109375 9.234375 16.796875 8.0625 
Q 21.484375 6.890625 26.703125 6.890625 
Q 35.15625 6.890625 40.078125 11.328125 
Q 45.015625 15.765625 45.015625 23.390625 
Q 45.015625 31 40.078125 35.4375 
Q 35.15625 39.890625 26.703125 39.890625 
Q 22.75 39.890625 18.8125 39.015625 
Q 14.890625 38.140625 10.796875 36.28125 
z
" id="DejaVuSans-35"/>
      </defs>
      <g transform="translate(286.831407 322.182437)scale(0.1 -0.1)">
       <use xlink:href="#DejaVuSans-35"/>
       <use x="63.623047" xlink:href="#DejaVuSans-30"/>
      </g>
     </g>
    </g>
    <g id="xtick_7">
     <g id="line2d_7">
      <g>
       <use style="stroke:#000000;stroke-width:0.8;" x="337.066143" xlink:href="#m27363f5b99" y="307.584"/>
      </g>
     </g>
     <g id="text_7">
      <!-- 60 -->
      <defs>
       <path d="M 33.015625 40.375 
Q 26.375 40.375 22.484375 35.828125 
Q 18.609375 31.296875 18.609375 23.390625 
Q 18.609375 15.53125 22.484375 10.953125 
Q 26.375 6.390625 33.015625 6.390625 
Q 39.65625 6.390625 43.53125 10.953125 
Q 47.40625 15.53125 47.40625 23.390625 
Q 47.40625 31.296875 43.53125 35.828125 
Q 39.65625 40.375 33.015625 40.375 
z
M 52.59375 71.296875 
L 52.59375 62.3125 
Q 48.875 64.0625 45.09375 64.984375 
Q 41.3125 65.921875 37.59375 65.921875 
Q 27.828125 65.921875 22.671875 59.328125 
Q 17.53125 52.734375 16.796875 39.40625 
Q 19.671875 43.65625 24.015625 45.921875 
Q 28.375 48.1875 33.59375 48.1875 
Q 44.578125 48.1875 50.953125 41.515625 
Q 57.328125 34.859375 57.328125 23.390625 
Q 57.328125 12.15625 50.6875 5.359375 
Q 44.046875 -1.421875 33.015625 -1.421875 
Q 20.359375 -1.421875 13.671875 8.265625 
Q 6.984375 17.96875 6.984375 36.375 
Q 6.984375 53.65625 15.1875 63.9375 
Q 23.390625 74.21875 37.203125 74.21875 
Q 40.921875 74.21875 44.703125 73.484375 
Q 48.484375 72.75 52.59375 71.296875 
z
" id="DejaVuSans-36"/>
      </defs>
      <g transform="translate(330.703643 322.182437)scale(0.1 -0.1)">
       <use xlink:href="#DejaVuSans-36"/>
       <use x="63.623047" xlink:href="#DejaVuSans-30"/>
      </g>
     </g>
    </g>
    <g id="xtick_8">
     <g id="line2d_8">
      <g>
       <use style="stroke:#000000;stroke-width:0.8;" x="380.938378" xlink:href="#m27363f5b99" y="307.584"/>
      </g>
     </g>
     <g id="text_8">
      <!-- 70 -->
      <defs>
       <path d="M 8.203125 72.90625 
L 55.078125 72.90625 
L 55.078125 68.703125 
L 28.609375 0 
L 18.3125 0 
L 43.21875 64.59375 
L 8.203125 64.59375 
z
" id="DejaVuSans-37"/>
      </defs>
      <g transform="translate(374.575878 322.182437)scale(0.1 -0.1)">
       <use xlink:href="#DejaVuSans-37"/>
       <use x="63.623047" xlink:href="#DejaVuSans-30"/>
      </g>
     </g>
    </g>
    <g id="text_9">
     <!-- Generations -->
     <defs>
      <path d="M 59.515625 10.40625 
L 59.515625 29.984375 
L 43.40625 29.984375 
L 43.40625 38.09375 
L 69.28125 38.09375 
L 69.28125 6.78125 
Q 63.578125 2.734375 56.6875 0.65625 
Q 49.8125 -1.421875 42 -1.421875 
Q 24.90625 -1.421875 15.25 8.5625 
Q 5.609375 18.5625 5.609375 36.375 
Q 5.609375 54.25 15.25 64.234375 
Q 24.90625 74.21875 42 74.21875 
Q 49.125 74.21875 55.546875 72.453125 
Q 61.96875 70.703125 67.390625 67.28125 
L 67.390625 56.78125 
Q 61.921875 61.421875 55.765625 63.765625 
Q 49.609375 66.109375 42.828125 66.109375 
Q 29.4375 66.109375 22.71875 58.640625 
Q 16.015625 51.171875 16.015625 36.375 
Q 16.015625 21.625 22.71875 14.15625 
Q 29.4375 6.6875 42.828125 6.6875 
Q 48.046875 6.6875 52.140625 7.59375 
Q 56.25 8.5 59.515625 10.40625 
z
" id="DejaVuSans-47"/>
      <path d="M 56.203125 29.59375 
L 56.203125 25.203125 
L 14.890625 25.203125 
Q 15.484375 15.921875 20.484375 11.0625 
Q 25.484375 6.203125 34.421875 6.203125 
Q 39.59375 6.203125 44.453125 7.46875 
Q 49.3125 8.734375 54.109375 11.28125 
L 54.109375 2.78125 
Q 49.265625 0.734375 44.1875 -0.34375 
Q 39.109375 -1.421875 33.890625 -1.421875 
Q 20.796875 -1.421875 13.15625 6.1875 
Q 5.515625 13.8125 5.515625 26.8125 
Q 5.515625 40.234375 12.765625 48.109375 
Q 20.015625 56 32.328125 56 
Q 43.359375 56 49.78125 48.890625 
Q 56.203125 41.796875 56.203125 29.59375 
z
M 47.21875 32.234375 
Q 47.125 39.59375 43.09375 43.984375 
Q 39.0625 48.390625 32.421875 48.390625 
Q 24.90625 48.390625 20.390625 44.140625 
Q 15.875 39.890625 15.1875 32.171875 
z
" id="DejaVuSans-65"/>
      <path d="M 54.890625 33.015625 
L 54.890625 0 
L 45.90625 0 
L 45.90625 32.71875 
Q 45.90625 40.484375 42.875 44.328125 
Q 39.84375 48.1875 33.796875 48.1875 
Q 26.515625 48.1875 22.3125 43.546875 
Q 18.109375 38.921875 18.109375 30.90625 
L 18.109375 0 
L 9.078125 0 
L 9.078125 54.6875 
L 18.109375 54.6875 
L 18.109375 46.1875 
Q 21.34375 51.125 25.703125 53.5625 
Q 30.078125 56 35.796875 56 
Q 45.21875 56 50.046875 50.171875 
Q 54.890625 44.34375 54.890625 33.015625 
z
" id="DejaVuSans-6e"/>
      <path d="M 41.109375 46.296875 
Q 39.59375 47.171875 37.8125 47.578125 
Q 36.03125 48 33.890625 48 
Q 26.265625 48 22.1875 43.046875 
Q 18.109375 38.09375 18.109375 28.8125 
L 18.109375 0 
L 9.078125 0 
L 9.078125 54.6875 
L 18.109375 54.6875 
L 18.109375 46.1875 
Q 20.953125 51.171875 25.484375 53.578125 
Q 30.03125 56 36.53125 56 
Q 37.453125 56 38.578125 55.875 
Q 39.703125 55.765625 41.0625 55.515625 
z
" id="DejaVuSans-72"/>
      <path d="M 34.28125 27.484375 
Q 23.390625 27.484375 19.1875 25 
Q 14.984375 22.515625 14.984375 16.5 
Q 14.984375 11.71875 18.140625 8.90625 
Q 21.296875 6.109375 26.703125 6.109375 
Q 34.1875 6.109375 38.703125 11.40625 
Q 43.21875 16.703125 43.21875 25.484375 
L 43.21875 27.484375 
z
M 52.203125 31.203125 
L 52.203125 0 
L 43.21875 0 
L 43.21875 8.296875 
Q 40.140625 3.328125 35.546875 0.953125 
Q 30.953125 -1.421875 24.3125 -1.421875 
Q 15.921875 -1.421875 10.953125 3.296875 
Q 6 8.015625 6 15.921875 
Q 6 25.140625 12.171875 29.828125 
Q 18.359375 34.515625 30.609375 34.515625 
L 43.21875 34.515625 
L 43.21875 35.40625 
Q 43.21875 41.609375 39.140625 45 
Q 35.0625 48.390625 27.6875 48.390625 
Q 23 48.390625 18.546875 47.265625 
Q 14.109375 46.140625 10.015625 43.890625 
L 10.015625 52.203125 
Q 14.9375 54.109375 19.578125 55.046875 
Q 24.21875 56 28.609375 56 
Q 40.484375 56 46.34375 49.84375 
Q 52.203125 43.703125 52.203125 31.203125 
z
" id="DejaVuSans-61"/>
      <path d="M 18.3125 70.21875 
L 18.3125 54.6875 
L 36.8125 54.6875 
L 36.8125 47.703125 
L 18.3125 47.703125 
L 18.3125 18.015625 
Q 18.3125 11.328125 20.140625 9.421875 
Q 21.96875 7.515625 27.59375 7.515625 
L 36.8125 7.515625 
L 36.8125 0 
L 27.59375 0 
Q 17.1875 0 13.234375 3.875 
Q 9.28125 7.765625 9.28125 18.015625 
L 9.28125 47.703125 
L 2.6875 47.703125 
L 2.6875 54.6875 
L 9.28125 54.6875 
L 9.28125 70.21875 
z
" id="DejaVuSans-74"/>
      <path d="M 9.421875 54.6875 
L 18.40625 54.6875 
L 18.40625 0 
L 9.421875 0 
z
M 9.421875 75.984375 
L 18.40625 75.984375 
L 18.40625 64.59375 
L 9.421875 64.59375 
z
" id="DejaVuSans-69"/>
      <path d="M 30.609375 48.390625 
Q 23.390625 48.390625 19.1875 42.75 
Q 14.984375 37.109375 14.984375 27.296875 
Q 14.984375 17.484375 19.15625 11.84375 
Q 23.34375 6.203125 30.609375 6.203125 
Q 37.796875 6.203125 41.984375 11.859375 
Q 46.1875 17.53125 46.1875 27.296875 
Q 46.1875 37.015625 41.984375 42.703125 
Q 37.796875 48.390625 30.609375 48.390625 
z
M 30.609375 56 
Q 42.328125 56 49.015625 48.375 
Q 55.71875 40.765625 55.71875 27.296875 
Q 55.71875 13.875 49.015625 6.21875 
Q 42.328125 -1.421875 30.609375 -1.421875 
Q 18.84375 -1.421875 12.171875 6.21875 
Q 5.515625 13.875 5.515625 27.296875 
Q 5.515625 40.765625 12.171875 48.375 
Q 18.84375 56 30.609375 56 
z
" id="DejaVuSans-6f"/>
      <path d="M 44.28125 53.078125 
L 44.28125 44.578125 
Q 40.484375 46.53125 36.375 47.5 
Q 32.28125 48.484375 27.875 48.484375 
Q 21.1875 48.484375 17.84375 46.4375 
Q 14.5 44.390625 14.5 40.28125 
Q 14.5 37.15625 16.890625 35.375 
Q 19.28125 33.59375 26.515625 31.984375 
L 29.59375 31.296875 
Q 39.15625 29.25 43.1875 25.515625 
Q 47.21875 21.78125 47.21875 15.09375 
Q 47.21875 7.46875 41.1875 3.015625 
Q 35.15625 -1.421875 24.609375 -1.421875 
Q 20.21875 -1.421875 15.453125 -0.5625 
Q 10.6875 0.296875 5.421875 2 
L 5.421875 11.28125 
Q 10.40625 8.6875 15.234375 7.390625 
Q 20.0625 6.109375 24.8125 6.109375 
Q 31.15625 6.109375 34.5625 8.28125 
Q 37.984375 10.453125 37.984375 14.40625 
Q 37.984375 18.0625 35.515625 20.015625 
Q 33.0625 21.96875 24.703125 23.78125 
L 21.578125 24.515625 
Q 13.234375 26.265625 9.515625 29.90625 
Q 5.8125 33.546875 5.8125 39.890625 
Q 5.8125 47.609375 11.28125 51.796875 
Q 16.75 56 26.8125 56 
Q 31.78125 56 36.171875 55.265625 
Q 40.578125 54.546875 44.28125 53.078125 
z
" id="DejaVuSans-73"/>
     </defs>
     <g transform="translate(205.662344 335.860562)scale(0.1 -0.1)">
      <use xlink:href="#DejaVuSans-47"/>
      <use x="77.490234" xlink:href="#DejaVuSans-65"/>
      <use x="139.013672" xlink:href="#DejaVuSans-6e"/>
      <use x="202.392578" xlink:href="#DejaVuSans-65"/>
      <use x="263.916016" xlink:href="#DejaVuSans-72"/>
      <use x="305.029297" xlink:href="#DejaVuSans-61"/>
      <use x="366.308594" xlink:href="#DejaVuSans-74"/>
      <use x="405.517578" xlink:href="#DejaVuSans-69"/>
      <use x="433.300781" xlink:href="#DejaVuSans-6f"/>
      <use x="494.482422" xlink:href="#DejaVuSans-6e"/>
      <use x="557.861328" xlink:href="#DejaVuSans-73"/>
     </g>
    </g>
   </g>
   <g id="matplotlib.axis_2">
    <g id="ytick_1">
     <g id="line2d_9">
      <defs>
       <path d="M 0 0 
L -3.5 0 
" id="m990e96cd25" style="stroke:#000000;stroke-width:0.8;"/>
      </defs>
      <g>
       <use style="stroke:#000000;stroke-width:0.8;" x="57.6" xlink:href="#m990e96cd25" y="307.584"/>
      </g>
     </g>
     <g id="text_10">
      <!-- 0 -->
      <g transform="translate(44.2375 311.383219)scale(0.1 -0.1)">
       <use xlink:href="#DejaVuSans-30"/>
      </g>
     </g>
    </g>
    <g id="ytick_2">
     <g id="line2d_10">
      <g>
       <use style="stroke:#000000;stroke-width:0.8;" x="57.6" xlink:href="#m990e96cd25" y="274.669714"/>
      </g>
     </g>
     <g id="text_11">
      <!-- 10 -->
      <g transform="translate(37.875 278.468933)scale(0.1 -0.1)">
       <use xlink:href="#DejaVuSans-31"/>
       <use x="63.623047" xlink:href="#DejaVuSans-30"/>
      </g>
     </g>
    </g>
    <g id="ytick_3">
     <g id="line2d_11">
      <g>
       <use style="stroke:#000000;stroke-width:0.8;" x="57.6" xlink:href="#m990e96cd25" y="241.755429"/>
      </g>
     </g>
     <g id="text_12">
      <!-- 20 -->
      <g transform="translate(37.875 245.554647)scale(0.1 -0.1)">
       <use xlink:href="#DejaVuSans-32"/>
       <use x="63.623047" xlink:href="#DejaVuSans-30"/>
      </g>
     </g>
    </g>
    <g id="ytick_4">
     <g id="line2d_12">
      <g>
       <use style="stroke:#000000;stroke-width:0.8;" x="57.6" xlink:href="#m990e96cd25" y="208.841143"/>
      </g>
     </g>
     <g id="text_13">
      <!-- 30 -->
      <g transform="translate(37.875 212.640362)scale(0.1 -0.1)">
       <use xlink:href="#DejaVuSans-33"/>
       <use x="63.623047" xlink:href="#DejaVuSans-30"/>
      </g>
     </g>
    </g>
    <g id="ytick_5">
     <g id="line2d_13">
      <g>
       <use style="stroke:#000000;stroke-width:0.8;" x="57.6" xlink:href="#m990e96cd25" y="175.926857"/>
      </g>
     </g>
     <g id="text_14">
      <!-- 40 -->
      <g transform="translate(37.875 179.726076)scale(0.1 -0.1)">
       <use xlink:href="#DejaVuSans-34"/>
       <use x="63.623047" xlink:href="#DejaVuSans-30"/>
      </g>
     </g>
    </g>
    <g id="ytick_6">
     <g id="line2d_14">
      <g>
       <use style="stroke:#000000;stroke-width:0.8;" x="57.6" xlink:href="#m990e96cd25" y="143.012571"/>
      </g>
     </g>
     <g id="text_15">
      <!-- 50 -->
      <g transform="translate(37.875 146.81179)scale(0.1 -0.1)">
       <use xlink:href="#DejaVuSans-35"/>
       <use x="63.623047" xlink:href="#DejaVuSans-30"/>
      </g>
     </g>
    </g>
    <g id="ytick_7">
     <g id="line2d_15">
      <g>
       <use style="stroke:#000000;stroke-width:0.8;" x="57.6" xlink:href="#m990e96cd25" y="110.098286"/>
      </g>
     </g>
     <g id="text_16">
      <!-- 60 -->
      <g transform="translate(37.875 113.897504)scale(0.1 -0.1)">
       <use xlink:href="#DejaVuSans-36"/>
       <use x="63.623047" xlink:href="#DejaVuSans-30"/>
      </g>
     </g>
    </g>
    <g id="ytick_8">
     <g id="line2d_16">
      <g>
       <use style="stroke:#000000;stroke-width:0.8;" x="57.6" xlink:href="#m990e96cd25" y="77.184"/>
      </g>
     </g>
     <g id="text_17">
      <!-- 70 -->
      <g transform="translate(37.875 80.983219)scale(0.1 -0.1)">
       <use xlink:href="#DejaVuSans-37"/>
       <use x="63.623047" xlink:href="#DejaVuSans-30"/>
      </g>
     </g>
    </g>
    <g id="ytick_9">
     <g id="line2d_17">
      <g>
       <use style="stroke:#000000;stroke-width:0.8;" x="57.6" xlink:href="#m990e96cd25" y="44.269714"/>
      </g>
     </g>
     <g id="text_18">
      <!-- 80 -->
      <defs>
       <path d="M 31.78125 34.625 
Q 24.75 34.625 20.71875 30.859375 
Q 16.703125 27.09375 16.703125 20.515625 
Q 16.703125 13.921875 20.71875 10.15625 
Q 24.75 6.390625 31.78125 6.390625 
Q 38.8125 6.390625 42.859375 10.171875 
Q 46.921875 13.96875 46.921875 20.515625 
Q 46.921875 27.09375 42.890625 30.859375 
Q 38.875 34.625 31.78125 34.625 
z
M 21.921875 38.8125 
Q 15.578125 40.375 12.03125 44.71875 
Q 8.5 49.078125 8.5 55.328125 
Q 8.5 64.0625 14.71875 69.140625 
Q 20.953125 74.21875 31.78125 74.21875 
Q 42.671875 74.21875 48.875 69.140625 
Q 55.078125 64.0625 55.078125 55.328125 
Q 55.078125 49.078125 51.53125 44.71875 
Q 48 40.375 41.703125 38.8125 
Q 48.828125 37.15625 52.796875 32.3125 
Q 56.78125 27.484375 56.78125 20.515625 
Q 56.78125 9.90625 50.3125 4.234375 
Q 43.84375 -1.421875 31.78125 -1.421875 
Q 19.734375 -1.421875 13.25 4.234375 
Q 6.78125 9.90625 6.78125 20.515625 
Q 6.78125 27.484375 10.78125 32.3125 
Q 14.796875 37.15625 21.921875 38.8125 
z
M 18.3125 54.390625 
Q 18.3125 48.734375 21.84375 45.5625 
Q 25.390625 42.390625 31.78125 42.390625 
Q 38.140625 42.390625 41.71875 45.5625 
Q 45.3125 48.734375 45.3125 54.390625 
Q 45.3125 60.0625 41.71875 63.234375 
Q 38.140625 66.40625 31.78125 66.40625 
Q 25.390625 66.40625 21.84375 63.234375 
Q 18.3125 60.0625 18.3125 54.390625 
z
" id="DejaVuSans-38"/>
      </defs>
      <g transform="translate(37.875 48.068933)scale(0.1 -0.1)">
       <use xlink:href="#DejaVuSans-38"/>
       <use x="63.623047" xlink:href="#DejaVuSans-30"/>
      </g>
     </g>
    </g>
    <g id="text_19">
     <!-- Size per Species -->
     <defs>
      <path d="M 53.515625 70.515625 
L 53.515625 60.890625 
Q 47.90625 63.578125 42.921875 64.890625 
Q 37.9375 66.21875 33.296875 66.21875 
Q 25.25 66.21875 20.875 63.09375 
Q 16.5 59.96875 16.5 54.203125 
Q 16.5 49.359375 19.40625 46.890625 
Q 22.3125 44.4375 30.421875 42.921875 
L 36.375 41.703125 
Q 47.40625 39.59375 52.65625 34.296875 
Q 57.90625 29 57.90625 20.125 
Q 57.90625 9.515625 50.796875 4.046875 
Q 43.703125 -1.421875 29.984375 -1.421875 
Q 24.8125 -1.421875 18.96875 -0.25 
Q 13.140625 0.921875 6.890625 3.21875 
L 6.890625 13.375 
Q 12.890625 10.015625 18.65625 8.296875 
Q 24.421875 6.59375 29.984375 6.59375 
Q 38.421875 6.59375 43.015625 9.90625 
Q 47.609375 13.234375 47.609375 19.390625 
Q 47.609375 24.75 44.3125 27.78125 
Q 41.015625 30.8125 33.5 32.328125 
L 27.484375 33.5 
Q 16.453125 35.6875 11.515625 40.375 
Q 6.59375 45.0625 6.59375 53.421875 
Q 6.59375 63.09375 13.40625 68.65625 
Q 20.21875 74.21875 32.171875 74.21875 
Q 37.3125 74.21875 42.625 73.28125 
Q 47.953125 72.359375 53.515625 70.515625 
z
" id="DejaVuSans-53"/>
      <path d="M 5.515625 54.6875 
L 48.1875 54.6875 
L 48.1875 46.484375 
L 14.40625 7.171875 
L 48.1875 7.171875 
L 48.1875 0 
L 4.296875 0 
L 4.296875 8.203125 
L 38.09375 47.515625 
L 5.515625 47.515625 
z
" id="DejaVuSans-7a"/>
      <path id="DejaVuSans-20"/>
      <path d="M 18.109375 8.203125 
L 18.109375 -20.796875 
L 9.078125 -20.796875 
L 9.078125 54.6875 
L 18.109375 54.6875 
L 18.109375 46.390625 
Q 20.953125 51.265625 25.265625 53.625 
Q 29.59375 56 35.59375 56 
Q 45.5625 56 51.78125 48.09375 
Q 58.015625 40.1875 58.015625 27.296875 
Q 58.015625 14.40625 51.78125 6.484375 
Q 45.5625 -1.421875 35.59375 -1.421875 
Q 29.59375 -1.421875 25.265625 0.953125 
Q 20.953125 3.328125 18.109375 8.203125 
z
M 48.6875 27.296875 
Q 48.6875 37.203125 44.609375 42.84375 
Q 40.53125 48.484375 33.40625 48.484375 
Q 26.265625 48.484375 22.1875 42.84375 
Q 18.109375 37.203125 18.109375 27.296875 
Q 18.109375 17.390625 22.1875 11.75 
Q 26.265625 6.109375 33.40625 6.109375 
Q 40.53125 6.109375 44.609375 11.75 
Q 48.6875 17.390625 48.6875 27.296875 
z
" id="DejaVuSans-70"/>
      <path d="M 48.78125 52.59375 
L 48.78125 44.1875 
Q 44.96875 46.296875 41.140625 47.34375 
Q 37.3125 48.390625 33.40625 48.390625 
Q 24.65625 48.390625 19.8125 42.84375 
Q 14.984375 37.3125 14.984375 27.296875 
Q 14.984375 17.28125 19.8125 11.734375 
Q 24.65625 6.203125 33.40625 6.203125 
Q 37.3125 6.203125 41.140625 7.25 
Q 44.96875 8.296875 48.78125 10.40625 
L 48.78125 2.09375 
Q 45.015625 0.34375 40.984375 -0.53125 
Q 36.96875 -1.421875 32.421875 -1.421875 
Q 20.0625 -1.421875 12.78125 6.34375 
Q 5.515625 14.109375 5.515625 27.296875 
Q 5.515625 40.671875 12.859375 48.328125 
Q 20.21875 56 33.015625 56 
Q 37.15625 56 41.109375 55.140625 
Q 45.0625 54.296875 48.78125 52.59375 
z
" id="DejaVuSans-63"/>
     </defs>
     <g transform="translate(31.795312 215.520969)rotate(-90)scale(0.1 -0.1)">
      <use xlink:href="#DejaVuSans-53"/>
      <use x="63.476562" xlink:href="#DejaVuSans-69"/>
      <use x="91.259766" xlink:href="#DejaVuSans-7a"/>
      <use x="143.75" xlink:href="#DejaVuSans-65"/>
      <use x="205.273438" xlink:href="#DejaVuSans-20"/>
      <use x="237.060547" xlink:href="#DejaVuSans-70"/>
      <use x="300.537109" xlink:href="#DejaVuSans-65"/>
      <use x="362.060547" xlink:href="#DejaVuSans-72"/>
      <use x="403.173828" xlink:href="#DejaVuSans-20"/>
      <use x="434.960938" xlink:href="#DejaVuSans-53"/>
      <use x="498.4375" xlink:href="#DejaVuSans-70"/>
      <use x="561.914062" xlink:href="#DejaVuSans-65"/>
      <use x="623.4375" xlink:href="#DejaVuSans-63"/>
      <use x="678.417969" xlink:href="#DejaVuSans-69"/>
      <use x="706.201172" xlink:href="#DejaVuSans-65"/>
      <use x="767.724609" xlink:href="#DejaVuSans-73"/>
     </g>
    </g>
   </g>
   <g id="patch_3">
    <path d="M 57.6 307.584 
L 57.6 41.472 
" style="fill:none;stroke:#000000;stroke-linecap:square;stroke-linejoin:miter;stroke-width:0.8;"/>
   </g>
   <g id="patch_4">
    <path d="M 414.72 307.584 
L 414.72 41.472 
" style="fill:none;stroke:#000000;stroke-linecap:square;stroke-linejoin:miter;stroke-width:0.8;"/>
   </g>
   <g id="patch_5">
    <path d="M 57.6 307.584 
L 414.72 307.584 
" style="fill:none;stroke:#000000;stroke-linecap:square;stroke-linejoin:miter;stroke-width:0.8;"/>
   </g>
   <g id="patch_6">
    <path d="M 57.6 41.472 
L 414.72 41.472 
" style="fill:none;stroke:#000000;stroke-linecap:square;stroke-linejoin:miter;stroke-width:0.8;"/>
   </g>
   <g id="text_20">
    <!-- Speciation -->
    <g transform="translate(204.714375 35.472)scale(0.12 -0.12)">
     <use xlink:href="#DejaVuSans-53"/>
     <use x="63.476562" xlink:href="#DejaVuSans-70"/>
     <use x="126.953125" xlink:href="#DejaVuSans-65"/>
     <use x="188.476562" xlink:href="#DejaVuSans-63"/>
     <use x="243.457031" xlink:href="#DejaVuSans-69"/>
     <use x="271.240234" xlink:href="#DejaVuSans-61"/>
     <use x="332.519531" xlink:href="#DejaVuSans-74"/>
     <use x="371.728516" xlink:href="#DejaVuSans-69"/>
     <use x="399.511719" xlink:href="#DejaVuSans-6f"/>
     <use x="460.693359" xlink:href="#DejaVuSans-6e"/>
    </g>
   </g>
  </g>
 </g>
 <defs>
  <clipPath id="pe39ad47beb">
   <rect height="266.112" width="357.12" x="57.6" y="41.472"/>
  </clipPath>
 </defs>
</svg>
